<?xml version="1.0" encoding="us-ascii" standalone="no"?><svg xmlns="http://www.w3.org/2000/svg" xmlns:xlink="http://www.w3.org/1999/xlink" contentStyleType="text/css" height="3461px" preserveAspectRatio="none" style="width:3367px;height:3461px;background:#FFFFFF;" version="1.1" viewBox="0 0 3367 3461" width="3367px" zoomAndPan="magnify"><defs/><g><text fill="#000000" font-family="Verdana" font-size="24" font-weight="bold" lengthAdjust="spacing" textLength="729" x="1317.75" y="40.6559">TLS Cipher-Suite-Hopping Covert Channel - Monitor Sequence</text><rect fill="#FFFFFF" height="309.7128" style="stroke:#000000;stroke-width:1.0;" width="2108.5" x="1242" y="775.2212"/><rect fill="#FFFFFF" height="160.8564" style="stroke:#000000;stroke-width:1.0;" width="456" x="1359" y="917.0776"/><rect fill="#FFFFFF" height="208.7846" style="stroke:#000000;stroke-width:1.0;" width="617" x="1624" y="1156.8981"/><rect fill="#FFFFFF" height="90.8923" style="stroke:#000000;stroke-width:1.0;" width="597" x="1634" y="1267.7904"/><rect fill="#FFFFFF" height="217.8205" style="stroke:#000000;stroke-width:1.0;" width="457.5" x="1950.5" y="1551.5751"/><rect fill="#FFFFFF" height="633.4615" style="stroke:#000000;stroke-width:1.0;" width="701.5" x="2225" y="1942.2879"/><rect fill="#FFFFFF" height="458.6051" style="stroke:#000000;stroke-width:1.0;" width="681.5" x="2235" y="2110.1443"/><rect fill="#FFFFFF" height="88.9282" style="stroke:none;stroke-width:1.0;" width="681.5" x="2235" y="2214.0366"/><rect fill="#FFFFFF" height="88.9282" style="stroke:none;stroke-width:1.0;" width="681.5" x="2235" y="2302.9648"/><rect fill="#FFFFFF" height="176.8564" style="stroke:none;stroke-width:1.0;" width="681.5" x="2235" y="2391.893"/><rect fill="#FFFFFF" height="309.7128" style="stroke:#000000;stroke-width:1.0;" width="1349" x="1940.5" y="2647.7135"/><rect fill="#FFFFFF" height="248.7846" style="stroke:#000000;stroke-width:1.0;" width="1329" x="1950.5" y="2701.6417"/><line style="stroke:#000000;stroke-width:1.0;" x1="37" x2="37" y1="149.652" y2="3366.1391"/><line style="stroke:#000000;stroke-width:1.0;" x1="340" x2="340" y1="149.652" y2="3366.1391"/><line style="stroke:#000000;stroke-width:1.0;" x1="688.5" x2="688.5" y1="149.652" y2="3366.1391"/><line style="stroke:#000000;stroke-width:1.0;" x1="958" x2="958" y1="149.652" y2="3366.1391"/><line style="stroke:#000000;stroke-width:1.0;" x1="1301" x2="1301" y1="149.652" y2="3366.1391"/><line style="stroke:#000000;stroke-width:1.0;" x1="1480" x2="1480" y1="149.652" y2="3366.1391"/><line style="stroke:#000000;stroke-width:1.0;" x1="1749" x2="1749" y1="149.652" y2="3366.1391"/><line style="stroke:#000000;stroke-width:1.0;" x1="2056.5" x2="2056.5" y1="149.652" y2="3366.1391"/><line style="stroke:#000000;stroke-width:1.0;" x1="2403" x2="2403" y1="149.652" y2="3366.1391"/><line style="stroke:#000000;stroke-width:1.0;" x1="2747.5" x2="2747.5" y1="149.652" y2="3366.1391"/><line style="stroke:#000000;stroke-width:1.0;" x1="3030.5" x2="3030.5" y1="149.652" y2="3366.1391"/><line style="stroke:#000000;stroke-width:1.0;" x1="3274.5" x2="3274.5" y1="149.652" y2="3366.1391"/><text fill="#000000" font-family="Verdana" font-size="22" lengthAdjust="spacing" textLength="48" x="10" y="143.206">User</text><ellipse cx="37" cy="67.6879" fill="#FFFFFF" rx="8" ry="8" style="stroke:#000000;stroke-width:1.0;"/><path d="M37,75.6879 L37,102.6879 M24,83.6879 L50,83.6879 M37,102.6879 L24,117.6879 M37,102.6879 L50,117.6879 " fill="none" style="stroke:#000000;stroke-width:1.0;"/><text fill="#000000" font-family="Verdana" font-size="22" lengthAdjust="spacing" textLength="48" x="10" y="3388.6572">User</text><ellipse cx="37" cy="3404.1032" fill="#FFFFFF" rx="8" ry="8" style="stroke:#000000;stroke-width:1.0;"/><path d="M37,3412.1032 L37,3439.1032 M24,3420.1032 L50,3420.1032 M37,3439.1032 L24,3454.1032 M37,3439.1032 L50,3454.1032 " fill="none" style="stroke:#000000;stroke-width:1.0;"/><rect fill="#FFFFFF" height="43.9641" rx="2.5" ry="2.5" style="stroke:#000000;stroke-width:1.0;" width="84" x="298" y="104.6879"/><text fill="#000000" font-family="Verdana" font-size="22" font-weight="bold" lengthAdjust="spacing" textLength="70" x="305" y="135.206">main()</text><rect fill="#FFFFFF" height="43.9641" rx="2.5" ry="2.5" style="stroke:#000000;stroke-width:1.0;" width="84" x="298" y="3365.1391"/><text fill="#000000" font-family="Verdana" font-size="22" font-weight="bold" lengthAdjust="spacing" textLength="70" x="305" y="3395.6572">main()</text><rect fill="#FFFFFF" height="43.9641" rx="2.5" ry="2.5" style="stroke:#000000;stroke-width:1.0;" width="237" x="570.5" y="104.6879"/><text fill="#000000" font-family="Verdana" font-size="22" font-weight="bold" lengthAdjust="spacing" textLength="223" x="577.5" y="135.206">load_permutations()</text><rect fill="#FFFFFF" height="43.9641" rx="2.5" ry="2.5" style="stroke:#000000;stroke-width:1.0;" width="237" x="570.5" y="3365.1391"/><text fill="#000000" font-family="Verdana" font-size="22" font-weight="bold" lengthAdjust="spacing" textLength="223" x="577.5" y="3395.6572">load_permutations()</text><rect fill="#FFFFFF" height="43.9641" rx="2.5" ry="2.5" style="stroke:#000000;stroke-width:1.0;" width="176" x="870" y="104.6879"/><text fill="#000000" font-family="Verdana" font-size="22" font-weight="bold" lengthAdjust="spacing" textLength="162" x="877" y="135.206">start_sniffing()</text><rect fill="#FFFFFF" height="43.9641" rx="2.5" ry="2.5" style="stroke:#000000;stroke-width:1.0;" width="176" x="870" y="3365.1391"/><text fill="#000000" font-family="Verdana" font-size="22" font-weight="bold" lengthAdjust="spacing" textLength="162" x="877" y="3395.6572">start_sniffing()</text><rect fill="#FFFFFF" height="43.9641" rx="2.5" ry="2.5" style="stroke:#000000;stroke-width:1.0;" width="78" x="1262" y="104.6879"/><text fill="#000000" font-family="Verdana" font-size="22" font-weight="bold" lengthAdjust="spacing" textLength="64" x="1269" y="135.206">sniff()</text><rect fill="#FFFFFF" height="43.9641" rx="2.5" ry="2.5" style="stroke:#000000;stroke-width:1.0;" width="78" x="1262" y="3365.1391"/><text fill="#000000" font-family="Verdana" font-size="22" font-weight="bold" lengthAdjust="spacing" textLength="64" x="1269" y="3395.6572">sniff()</text><rect fill="#FFFFFF" height="43.9641" rx="2.5" ry="2.5" style="stroke:#000000;stroke-width:1.0;" width="202" x="1379" y="104.6879"/><text fill="#000000" font-family="Verdana" font-size="22" font-weight="bold" lengthAdjust="spacing" textLength="188" x="1386" y="135.206">packet_callback()</text><rect fill="#FFFFFF" height="43.9641" rx="2.5" ry="2.5" style="stroke:#000000;stroke-width:1.0;" width="202" x="1379" y="3365.1391"/><text fill="#000000" font-family="Verdana" font-size="22" font-weight="bold" lengthAdjust="spacing" textLength="188" x="1386" y="3395.6572">packet_callback()</text><rect fill="#FFFFFF" height="43.9641" rx="2.5" ry="2.5" style="stroke:#000000;stroke-width:1.0;" width="190" x="1654" y="104.6879"/><text fill="#000000" font-family="Verdana" font-size="22" font-weight="bold" lengthAdjust="spacing" textLength="176" x="1661" y="135.206">check_timeout()</text><rect fill="#FFFFFF" height="43.9641" rx="2.5" ry="2.5" style="stroke:#000000;stroke-width:1.0;" width="190" x="1654" y="3365.1391"/><text fill="#000000" font-family="Verdana" font-size="22" font-weight="bold" lengthAdjust="spacing" textLength="176" x="1661" y="3395.6572">check_timeout()</text><rect fill="#FFFFFF" height="43.9641" rx="2.5" ry="2.5" style="stroke:#000000;stroke-width:1.0;" width="173" x="1970.5" y="104.6879"/><text fill="#000000" font-family="Verdana" font-size="22" font-weight="bold" lengthAdjust="spacing" textLength="159" x="1977.5" y="135.206">analyze_pcap()</text><rect fill="#FFFFFF" height="43.9641" rx="2.5" ry="2.5" style="stroke:#000000;stroke-width:1.0;" width="173" x="1970.5" y="3365.1391"/><text fill="#000000" font-family="Verdana" font-size="22" font-weight="bold" lengthAdjust="spacing" textLength="159" x="1977.5" y="3395.6572">analyze_pcap()</text><rect fill="#FFFFFF" height="43.9641" rx="2.5" ry="2.5" style="stroke:#000000;stroke-width:1.0;" width="296" x="2255" y="104.6879"/><text fill="#000000" font-family="Verdana" font-size="22" font-weight="bold" lengthAdjust="spacing" textLength="282" x="2262" y="135.206">process_all_packet_pairs()</text><rect fill="#FFFFFF" height="43.9641" rx="2.5" ry="2.5" style="stroke:#000000;stroke-width:1.0;" width="296" x="2255" y="3365.1391"/><text fill="#000000" font-family="Verdana" font-size="22" font-weight="bold" lengthAdjust="spacing" textLength="282" x="2262" y="3395.6572">process_all_packet_pairs()</text><rect fill="#FFFFFF" height="43.9641" rx="2.5" ry="2.5" style="stroke:#000000;stroke-width:1.0;" width="297" x="2599.5" y="104.6879"/><text fill="#000000" font-family="Verdana" font-size="22" font-weight="bold" lengthAdjust="spacing" textLength="283" x="2606.5" y="135.206">find_matching_ascii_pair()</text><rect fill="#FFFFFF" height="43.9641" rx="2.5" ry="2.5" style="stroke:#000000;stroke-width:1.0;" width="297" x="2599.5" y="3365.1391"/><text fill="#000000" font-family="Verdana" font-size="22" font-weight="bold" lengthAdjust="spacing" textLength="283" x="2606.5" y="3395.6572">find_matching_ascii_pair()</text><rect fill="#FFFFFF" height="43.9641" rx="2.5" ry="2.5" style="stroke:#000000;stroke-width:1.0;" width="208" x="2926.5" y="104.6879"/><text fill="#000000" font-family="Verdana" font-size="22" font-weight="bold" lengthAdjust="spacing" textLength="194" x="2933.5" y="135.206">generate_report()</text><rect fill="#FFFFFF" height="43.9641" rx="2.5" ry="2.5" style="stroke:#000000;stroke-width:1.0;" width="208" x="2926.5" y="3365.1391"/><text fill="#000000" font-family="Verdana" font-size="22" font-weight="bold" lengthAdjust="spacing" textLength="194" x="2933.5" y="3395.6572">generate_report()</text><rect fill="#FFFFFF" height="43.9641" rx="2.5" ry="2.5" style="stroke:#000000;stroke-width:1.0;" width="112" x="3218.5" y="104.6879"/><text fill="#000000" font-family="Verdana" font-size="22" font-weight="bold" lengthAdjust="spacing" textLength="98" x="3225.5" y="135.206">Network</text><rect fill="#FFFFFF" height="43.9641" rx="2.5" ry="2.5" style="stroke:#000000;stroke-width:1.0;" width="112" x="3218.5" y="3365.1391"/><text fill="#000000" font-family="Verdana" font-size="22" font-weight="bold" lengthAdjust="spacing" textLength="98" x="3225.5" y="3395.6572">Network</text><rect fill="#F5F5F5" height="3" style="stroke:#F5F5F5;stroke-width:1.0;" width="3355.5" x="5" y="187.6341"/><line style="stroke:#A9A9A9;stroke-width:0.5;" x1="5" x2="3360.5" y1="187.6341" y2="187.6341"/><line style="stroke:#A9A9A9;stroke-width:0.5;" x1="5" x2="3360.5" y1="190.6341" y2="190.6341"/><rect fill="#F5F5F5" height="37.9641" style="stroke:#A9A9A9;stroke-width:1.0;" width="163" x="1601.25" y="169.652"/><text fill="#000000" font-family="Verdana" font-size="22" font-weight="bold" lengthAdjust="spacing" textLength="143" x="1607.25" y="197.1701">Initialization</text><polygon fill="#000000" points="328,249.5802,338,253.5802,328,257.5802,332,253.5802" style="stroke:#000000;stroke-width:1.0;"/><line style="stroke:#000000;stroke-width:2.0;" x1="37" x2="334" y1="253.5802" y2="253.5802"/><text fill="#000000" font-family="Verdana" font-size="22" lengthAdjust="spacing" textLength="279" x="49" y="245.1342">Run script with arguments</text><line style="stroke:#000000;stroke-width:2.0;" x1="340" x2="382" y1="297.5443" y2="297.5443"/><line style="stroke:#000000;stroke-width:2.0;" x1="382" x2="382" y1="297.5443" y2="310.5443"/><line style="stroke:#000000;stroke-width:2.0;" x1="341" x2="382" y1="310.5443" y2="310.5443"/><polygon fill="#000000" points="351,306.5443,341,310.5443,351,314.5443,347,310.5443" style="stroke:#000000;stroke-width:1.0;"/><text fill="#000000" font-family="Verdana" font-size="22" lengthAdjust="spacing" textLength="335" x="347" y="289.0983">Parse command-line arguments</text><polygon fill="#000000" points="677,350.5084,687,354.5084,677,358.5084,681,354.5084" style="stroke:#000000;stroke-width:1.0;"/><line style="stroke:#000000;stroke-width:2.0;" x1="340" x2="683" y1="354.5084" y2="354.5084"/><text fill="#000000" font-family="Verdana" font-size="22" lengthAdjust="spacing" textLength="249" x="390" y="346.0624">Load permutations.json</text><line style="stroke:#000000;stroke-width:2.0;" x1="689" x2="731" y1="398.4725" y2="398.4725"/><line style="stroke:#000000;stroke-width:2.0;" x1="731" x2="731" y1="398.4725" y2="411.4725"/><line style="stroke:#000000;stroke-width:2.0;" x1="690" x2="731" y1="411.4725" y2="411.4725"/><polygon fill="#000000" points="700,407.4725,690,411.4725,700,415.4725,696,411.4725" style="stroke:#000000;stroke-width:1.0;"/><text fill="#000000" font-family="Verdana" font-size="22" lengthAdjust="spacing" textLength="255" x="696" y="390.0265">Create lookup dictionary</text><polygon fill="#000000" points="351,451.4366,341,455.4366,351,459.4366,347,455.4366" style="stroke:#000000;stroke-width:1.0;"/><line style="stroke:#000000;stroke-width:2.0;stroke-dasharray:2.0,2.0;" x1="345" x2="688" y1="455.4366" y2="455.4366"/><text fill="#000000" font-family="Verdana" font-size="22" lengthAdjust="spacing" textLength="296" x="366.5" y="446.9906">Return loaded permutations</text><rect fill="#F5F5F5" height="3" style="stroke:#F5F5F5;stroke-width:1.0;" width="3355.5" x="5" y="491.4187"/><line style="stroke:#A9A9A9;stroke-width:0.5;" x1="5" x2="3360.5" y1="491.4187" y2="491.4187"/><line style="stroke:#A9A9A9;stroke-width:0.5;" x1="5" x2="3360.5" y1="494.4187" y2="494.4187"/><rect fill="#F5F5F5" height="37.9641" style="stroke:#A9A9A9;stroke-width:1.0;" width="206" x="1579.75" y="473.4366"/><text fill="#000000" font-family="Verdana" font-size="22" font-weight="bold" lengthAdjust="spacing" textLength="186" x="1585.75" y="500.9547">Start Monitoring</text><polygon fill="#000000" points="946,553.3648,956,557.3648,946,561.3648,950,557.3648" style="stroke:#000000;stroke-width:1.0;"/><line style="stroke:#000000;stroke-width:2.0;" x1="340" x2="952" y1="557.3648" y2="557.3648"/><text fill="#000000" font-family="Verdana" font-size="22" lengthAdjust="spacing" textLength="264" x="517" y="548.9188">Start network monitoring</text><line style="stroke:#000000;stroke-width:2.0;" x1="958" x2="1000" y1="601.3289" y2="601.3289"/><line style="stroke:#000000;stroke-width:2.0;" x1="1000" x2="1000" y1="601.3289" y2="614.3289"/><line style="stroke:#000000;stroke-width:2.0;" x1="959" x2="1000" y1="614.3289" y2="614.3289"/><polygon fill="#000000" points="969,610.3289,959,614.3289,969,618.3289,965,614.3289" style="stroke:#000000;stroke-width:1.0;"/><text fill="#000000" font-family="Verdana" font-size="22" lengthAdjust="spacing" textLength="151" x="965" y="592.8829">Clear PCAP file</text><polygon fill="#000000" points="1737,654.293,1747,658.293,1737,662.293,1741,658.293" style="stroke:#000000;stroke-width:1.0;"/><line style="stroke:#000000;stroke-width:2.0;" x1="958" x2="1743" y1="658.293" y2="658.293"/><text fill="#000000" font-family="Verdana" font-size="22" lengthAdjust="spacing" textLength="212" x="1247.5" y="649.847">Start timeout thread</text><polygon fill="#000000" points="1289,698.2571,1299,702.2571,1289,706.2571,1293,702.2571" style="stroke:#000000;stroke-width:1.0;"/><line style="stroke:#000000;stroke-width:2.0;" x1="958" x2="1295" y1="702.2571" y2="702.2571"/><text fill="#000000" font-family="Verdana" font-size="22" lengthAdjust="spacing" textLength="319" x="970" y="693.8111">Start packet capture (port 443)</text><rect fill="#F5F5F5" height="3" style="stroke:#F5F5F5;stroke-width:1.0;" width="3355.5" x="5" y="738.2392"/><line style="stroke:#A9A9A9;stroke-width:0.5;" x1="5" x2="3360.5" y1="738.2392" y2="738.2392"/><line style="stroke:#A9A9A9;stroke-width:0.5;" x1="5" x2="3360.5" y1="741.2392" y2="741.2392"/><rect fill="#F5F5F5" height="37.9641" style="stroke:#A9A9A9;stroke-width:1.0;" width="249" x="1558.25" y="720.2571"/><text fill="#000000" font-family="Verdana" font-size="22" font-weight="bold" lengthAdjust="spacing" textLength="229" x="1564.25" y="747.7752">Packet Capture Loop</text><path d="M1242,775.2212 L1336,775.2212 L1336,797.1853 L1326,807.1853 L1242,807.1853 L1242,775.2212 " fill="#FFFFFF" style="stroke:#000000;stroke-width:1.0;"/><rect fill="none" height="309.7128" style="stroke:#000000;stroke-width:1.0;" width="2108.5" x="1242" y="775.2212"/><text fill="#000000" font-family="Verdana" font-size="22" font-weight="bold" lengthAdjust="spacing" textLength="49" x="1257" y="799.7393">loop</text><text fill="#000000" font-family="Verdana" font-size="22" font-weight="bold" lengthAdjust="spacing" textLength="285" x="1351" y="800.7393">[for each network packet]</text><polygon fill="#000000" points="1312,854.1135,1302,858.1135,1312,862.1135,1308,858.1135" style="stroke:#000000;stroke-width:1.0;"/><line style="stroke:#000000;stroke-width:2.0;" x1="1306" x2="3273.5" y1="858.1135" y2="858.1135"/><text fill="#000000" font-family="Verdana" font-size="22" lengthAdjust="spacing" textLength="111" x="2232.25" y="849.6675">TLS packet</text><polygon fill="#000000" points="1468,898.0776,1478,902.0776,1468,906.0776,1472,902.0776" style="stroke:#000000;stroke-width:1.0;"/><line style="stroke:#000000;stroke-width:2.0;" x1="1301" x2="1474" y1="902.0776" y2="902.0776"/><text fill="#000000" font-family="Verdana" font-size="22" lengthAdjust="spacing" textLength="155" x="1313" y="893.6316">Process packet</text><path d="M1359,917.0776 L1434,917.0776 L1434,939.0417 L1424,949.0417 L1359,949.0417 L1359,917.0776 " fill="#FFFFFF" style="stroke:#000000;stroke-width:1.0;"/><rect fill="none" height="160.8564" style="stroke:#000000;stroke-width:1.0;" width="456" x="1359" y="917.0776"/><text fill="#000000" font-family="Verdana" font-size="22" font-weight="bold" lengthAdjust="spacing" textLength="30" x="1374" y="941.5957">alt</text><text fill="#000000" font-family="Verdana" font-size="22" font-weight="bold" lengthAdjust="spacing" textLength="361" x="1449" y="942.5957">[Packet has TLSClientHello layer]</text><line style="stroke:#000000;stroke-width:2.0;" x1="1480" x2="1522" y1="999.9699" y2="999.9699"/><line style="stroke:#000000;stroke-width:2.0;" x1="1522" x2="1522" y1="999.9699" y2="1012.9699"/><line style="stroke:#000000;stroke-width:2.0;" x1="1481" x2="1522" y1="1012.9699" y2="1012.9699"/><polygon fill="#000000" points="1491,1008.9699,1481,1012.9699,1491,1016.9699,1487,1012.9699" style="stroke:#000000;stroke-width:1.0;"/><text fill="#000000" font-family="Verdana" font-size="22" lengthAdjust="spacing" textLength="172" x="1487" y="991.5239">Save to PCAP file</text><line style="stroke:#000000;stroke-width:2.0;" x1="1480" x2="1522" y1="1056.934" y2="1056.934"/><line style="stroke:#000000;stroke-width:2.0;" x1="1522" x2="1522" y1="1056.934" y2="1069.934"/><line style="stroke:#000000;stroke-width:2.0;" x1="1481" x2="1522" y1="1069.934" y2="1069.934"/><polygon fill="#000000" points="1491,1065.934,1481,1069.934,1491,1073.934,1487,1069.934" style="stroke:#000000;stroke-width:1.0;"/><text fill="#000000" font-family="Verdana" font-size="22" lengthAdjust="spacing" textLength="255" x="1487" y="1048.488">Update last_packet_time</text><rect fill="#F5F5F5" height="3" style="stroke:#F5F5F5;stroke-width:1.0;" width="3355.5" x="5" y="1119.9161"/><line style="stroke:#A9A9A9;stroke-width:0.5;" x1="5" x2="3360.5" y1="1119.9161" y2="1119.9161"/><line style="stroke:#A9A9A9;stroke-width:0.5;" x1="5" x2="3360.5" y1="1122.9161" y2="1122.9161"/><rect fill="#F5F5F5" height="37.9641" style="stroke:#A9A9A9;stroke-width:1.0;" width="227" x="1569.25" y="1101.934"/><text fill="#000000" font-family="Verdana" font-size="22" font-weight="bold" lengthAdjust="spacing" textLength="207" x="1575.25" y="1129.4521">Timeout Detection</text><path d="M1624,1156.8981 L1718,1156.8981 L1718,1178.8622 L1708,1188.8622 L1624,1188.8622 L1624,1156.8981 " fill="#FFFFFF" style="stroke:#000000;stroke-width:1.0;"/><rect fill="none" height="208.7846" style="stroke:#000000;stroke-width:1.0;" width="617" x="1624" y="1156.8981"/><text fill="#000000" font-family="Verdana" font-size="22" font-weight="bold" lengthAdjust="spacing" textLength="49" x="1639" y="1181.4162">loop</text><text fill="#000000" font-family="Verdana" font-size="22" font-weight="bold" lengthAdjust="spacing" textLength="189" x="1733" y="1182.4162">[every 3 seconds]</text><line style="stroke:#000000;stroke-width:2.0;" x1="1749" x2="1791" y1="1239.7904" y2="1239.7904"/><line style="stroke:#000000;stroke-width:2.0;" x1="1791" x2="1791" y1="1239.7904" y2="1252.7904"/><line style="stroke:#000000;stroke-width:2.0;" x1="1750" x2="1791" y1="1252.7904" y2="1252.7904"/><polygon fill="#000000" points="1760,1248.7904,1750,1252.7904,1760,1256.7904,1756,1252.7904" style="stroke:#000000;stroke-width:1.0;"/><text fill="#000000" font-family="Verdana" font-size="22" lengthAdjust="spacing" textLength="294" x="1756" y="1231.3444">Check time since last packet</text><path d="M1634,1267.7904 L1709,1267.7904 L1709,1289.7546 L1699,1299.7546 L1634,1299.7546 L1634,1267.7904 " fill="#FFFFFF" style="stroke:#000000;stroke-width:1.0;"/><rect fill="none" height="90.8923" style="stroke:#000000;stroke-width:1.0;" width="597" x="1634" y="1267.7904"/><text fill="#000000" font-family="Verdana" font-size="22" font-weight="bold" lengthAdjust="spacing" textLength="30" x="1649" y="1292.3085">alt</text><text fill="#000000" font-family="Verdana" font-size="22" font-weight="bold" lengthAdjust="spacing" textLength="502" x="1724" y="1293.3085">[No packets for 3+ seconds &amp; PCAP file exists]</text><polygon fill="#000000" points="2045,1346.6828,2055,1350.6828,2045,1354.6828,2049,1350.6828" style="stroke:#000000;stroke-width:1.0;"/><line style="stroke:#000000;stroke-width:2.0;" x1="1749" x2="2051" y1="1350.6828" y2="1350.6828"/><text fill="#000000" font-family="Verdana" font-size="22" lengthAdjust="spacing" textLength="225" x="1790.5" y="1342.2367">Trigger PCAP analysis</text><rect fill="#F5F5F5" height="3" style="stroke:#F5F5F5;stroke-width:1.0;" width="3355.5" x="5" y="1400.6648"/><line style="stroke:#A9A9A9;stroke-width:0.5;" x1="5" x2="3360.5" y1="1400.6648" y2="1400.6648"/><line style="stroke:#A9A9A9;stroke-width:0.5;" x1="5" x2="3360.5" y1="1403.6648" y2="1403.6648"/><rect fill="#F5F5F5" height="37.9641" style="stroke:#A9A9A9;stroke-width:1.0;" width="174" x="1595.75" y="1382.6828"/><text fill="#000000" font-family="Verdana" font-size="22" font-weight="bold" lengthAdjust="spacing" textLength="154" x="1601.75" y="1410.2008">PCAP Analysis</text><line style="stroke:#000000;stroke-width:2.0;" x1="2057" x2="2099" y1="1466.611" y2="1466.611"/><line style="stroke:#000000;stroke-width:2.0;" x1="2099" x2="2099" y1="1466.611" y2="1479.611"/><line style="stroke:#000000;stroke-width:2.0;" x1="2058" x2="2099" y1="1479.611" y2="1479.611"/><polygon fill="#000000" points="2068,1475.611,2058,1479.611,2068,1483.611,2064,1479.611" style="stroke:#000000;stroke-width:1.0;"/><text fill="#000000" font-family="Verdana" font-size="22" lengthAdjust="spacing" textLength="254" x="2064" y="1458.1649">Load packets from PCAP</text><line style="stroke:#000000;stroke-width:2.0;" x1="2057" x2="2099" y1="1523.5751" y2="1523.5751"/><line style="stroke:#000000;stroke-width:2.0;" x1="2099" x2="2099" y1="1523.5751" y2="1536.5751"/><line style="stroke:#000000;stroke-width:2.0;" x1="2058" x2="2099" y1="1536.5751" y2="1536.5751"/><polygon fill="#000000" points="2068,1532.5751,2058,1536.5751,2068,1540.5751,2064,1536.5751" style="stroke:#000000;stroke-width:1.0;"/><text fill="#000000" font-family="Verdana" font-size="22" lengthAdjust="spacing" textLength="313" x="2064" y="1515.129">Extract TLSClientHello packets</text><path d="M1950.5,1551.5751 L2044.5,1551.5751 L2044.5,1573.5392 L2034.5,1583.5392 L1950.5,1583.5392 L1950.5,1551.5751 " fill="#FFFFFF" style="stroke:#000000;stroke-width:1.0;"/><rect fill="none" height="217.8205" style="stroke:#000000;stroke-width:1.0;" width="457.5" x="1950.5" y="1551.5751"/><text fill="#000000" font-family="Verdana" font-size="22" font-weight="bold" lengthAdjust="spacing" textLength="49" x="1965.5" y="1576.0931">loop</text><text fill="#000000" font-family="Verdana" font-size="22" font-weight="bold" lengthAdjust="spacing" textLength="228" x="2059.5" y="1577.0931">[for each TLS packet]</text><line style="stroke:#000000;stroke-width:2.0;" x1="2057" x2="2099" y1="1634.4674" y2="1634.4674"/><line style="stroke:#000000;stroke-width:2.0;" x1="2099" x2="2099" y1="1634.4674" y2="1647.4674"/><line style="stroke:#000000;stroke-width:2.0;" x1="2058" x2="2099" y1="1647.4674" y2="1647.4674"/><polygon fill="#000000" points="2068,1643.4674,2058,1647.4674,2068,1651.4674,2064,1647.4674" style="stroke:#000000;stroke-width:1.0;"/><text fill="#000000" font-family="Verdana" font-size="22" lengthAdjust="spacing" textLength="212" x="2064" y="1626.0213">Extract cipher suites</text><line style="stroke:#000000;stroke-width:2.0;" x1="2057" x2="2099" y1="1691.4315" y2="1691.4315"/><line style="stroke:#000000;stroke-width:2.0;" x1="2099" x2="2099" y1="1691.4315" y2="1704.4315"/><line style="stroke:#000000;stroke-width:2.0;" x1="2058" x2="2099" y1="1704.4315" y2="1704.4315"/><polygon fill="#000000" points="2068,1700.4315,2058,1704.4315,2068,1708.4315,2064,1704.4315" style="stroke:#000000;stroke-width:1.0;"/><text fill="#000000" font-family="Verdana" font-size="22" lengthAdjust="spacing" textLength="332" x="2064" y="1682.9854">Map to symbolic representation</text><line style="stroke:#000000;stroke-width:2.0;" x1="2057" x2="2099" y1="1748.3956" y2="1748.3956"/><line style="stroke:#000000;stroke-width:2.0;" x1="2099" x2="2099" y1="1748.3956" y2="1761.3956"/><line style="stroke:#000000;stroke-width:2.0;" x1="2058" x2="2099" y1="1761.3956" y2="1761.3956"/><polygon fill="#000000" points="2068,1757.3956,2058,1761.3956,2068,1765.3956,2064,1761.3956" style="stroke:#000000;stroke-width:1.0;"/><text fill="#000000" font-family="Verdana" font-size="22" lengthAdjust="spacing" textLength="301" x="2064" y="1739.9495">Store in captured_sequences</text><polygon fill="#000000" points="2391,1808.3597,2401,1812.3597,2391,1816.3597,2395,1812.3597" style="stroke:#000000;stroke-width:1.0;"/><line style="stroke:#000000;stroke-width:2.0;" x1="2057" x2="2397" y1="1812.3597" y2="1812.3597"/><text fill="#000000" font-family="Verdana" font-size="22" lengthAdjust="spacing" textLength="243" x="2108.5" y="1803.9136">Process all packet pairs</text><rect fill="#F5F5F5" height="3" style="stroke:#F5F5F5;stroke-width:1.0;" width="3355.5" x="5" y="1848.3417"/><line style="stroke:#A9A9A9;stroke-width:0.5;" x1="5" x2="3360.5" y1="1848.3417" y2="1848.3417"/><line style="stroke:#A9A9A9;stroke-width:0.5;" x1="5" x2="3360.5" y1="1851.3417" y2="1851.3417"/><rect fill="#F5F5F5" height="37.9641" style="stroke:#A9A9A9;stroke-width:1.0;" width="270" x="1547.75" y="1830.3597"/><text fill="#000000" font-family="Verdana" font-size="22" font-weight="bold" lengthAdjust="spacing" textLength="250" x="1553.75" y="1857.8778">Packet Pair Processing</text><line style="stroke:#000000;stroke-width:2.0;" x1="2403" x2="2445" y1="1914.2879" y2="1914.2879"/><line style="stroke:#000000;stroke-width:2.0;" x1="2445" x2="2445" y1="1914.2879" y2="1927.2879"/><line style="stroke:#000000;stroke-width:2.0;" x1="2404" x2="2445" y1="1927.2879" y2="1927.2879"/><polygon fill="#000000" points="2414,1923.2879,2404,1927.2879,2414,1931.2879,2410,1927.2879" style="stroke:#000000;stroke-width:1.0;"/><text fill="#000000" font-family="Verdana" font-size="22" lengthAdjust="spacing" textLength="226" x="2410" y="1905.8419">Reset data collections</text><path d="M2225,1942.2879 L2319,1942.2879 L2319,1964.252 L2309,1974.252 L2225,1974.252 L2225,1942.2879 " fill="#FFFFFF" style="stroke:#000000;stroke-width:1.0;"/><rect fill="none" height="633.4615" style="stroke:#000000;stroke-width:1.0;" width="701.5" x="2225" y="1942.2879"/><text fill="#000000" font-family="Verdana" font-size="22" font-weight="bold" lengthAdjust="spacing" textLength="49" x="2240" y="1966.806">loop</text><text fill="#000000" font-family="Verdana" font-size="22" font-weight="bold" lengthAdjust="spacing" textLength="358" x="2334" y="1967.806">[for every pair of packets (i, i+1)]</text><line style="stroke:#000000;stroke-width:2.0;" x1="2403" x2="2445" y1="2025.1802" y2="2025.1802"/><line style="stroke:#000000;stroke-width:2.0;" x1="2445" x2="2445" y1="2025.1802" y2="2038.1802"/><line style="stroke:#000000;stroke-width:2.0;" x1="2404" x2="2445" y1="2038.1802" y2="2038.1802"/><polygon fill="#000000" points="2414,2034.1802,2404,2038.1802,2414,2042.1802,2410,2038.1802" style="stroke:#000000;stroke-width:1.0;"/><text fill="#000000" font-family="Verdana" font-size="22" lengthAdjust="spacing" textLength="331" x="2410" y="2016.7342">Get first and second cipher lists</text><line style="stroke:#000000;stroke-width:2.0;" x1="2403" x2="2445" y1="2082.1443" y2="2082.1443"/><line style="stroke:#000000;stroke-width:2.0;" x1="2445" x2="2445" y1="2082.1443" y2="2095.1443"/><line style="stroke:#000000;stroke-width:2.0;" x1="2404" x2="2445" y1="2095.1443" y2="2095.1443"/><polygon fill="#000000" points="2414,2091.1443,2404,2095.1443,2414,2099.1443,2410,2095.1443" style="stroke:#000000;stroke-width:1.0;"/><text fill="#000000" font-family="Verdana" font-size="22" lengthAdjust="spacing" textLength="227" x="2410" y="2073.6983">Check if signal packet</text><path d="M2235,2110.1443 L2310,2110.1443 L2310,2132.1084 L2300,2142.1084 L2235,2142.1084 L2235,2110.1443 " fill="#FFFFFF" style="stroke:#000000;stroke-width:1.0;"/><rect fill="none" height="458.6051" style="stroke:#000000;stroke-width:1.0;" width="681.5" x="2235" y="2110.1443"/><text fill="#000000" font-family="Verdana" font-size="22" font-weight="bold" lengthAdjust="spacing" textLength="30" x="2250" y="2134.6624">alt</text><text fill="#000000" font-family="Verdana" font-size="22" font-weight="bold" lengthAdjust="spacing" textLength="207" x="2325" y="2135.6624">[Signal == "START"]</text><line style="stroke:#000000;stroke-width:2.0;" x1="2403" x2="2445" y1="2193.0366" y2="2193.0366"/><line style="stroke:#000000;stroke-width:2.0;" x1="2445" x2="2445" y1="2193.0366" y2="2206.0366"/><line style="stroke:#000000;stroke-width:2.0;" x1="2404" x2="2445" y1="2206.0366" y2="2206.0366"/><polygon fill="#000000" points="2414,2202.0366,2404,2206.0366,2414,2210.0366,2410,2206.0366" style="stroke:#000000;stroke-width:1.0;"/><text fill="#000000" font-family="Verdana" font-size="22" lengthAdjust="spacing" textLength="278" x="2410" y="2184.5906">Initialize new transmission</text><line style="stroke:#000000;stroke-width:1.0;stroke-dasharray:2.0,2.0;" x1="2235" x2="2916.5" y1="2215.0366" y2="2215.0366"/><text fill="#000000" font-family="Verdana" font-size="22" font-weight="bold" lengthAdjust="spacing" textLength="185" x="2240" y="2238.5547">[Signal == "END"]</text><line style="stroke:#000000;stroke-width:2.0;" x1="2403" x2="2445" y1="2281.9648" y2="2281.9648"/><line style="stroke:#000000;stroke-width:2.0;" x1="2445" x2="2445" y1="2281.9648" y2="2294.9648"/><line style="stroke:#000000;stroke-width:2.0;" x1="2404" x2="2445" y1="2294.9648" y2="2294.9648"/><polygon fill="#000000" points="2414,2290.9648,2404,2294.9648,2414,2298.9648,2410,2294.9648" style="stroke:#000000;stroke-width:1.0;"/><text fill="#000000" font-family="Verdana" font-size="22" lengthAdjust="spacing" textLength="313" x="2410" y="2273.5188">Store completed transmission</text><line style="stroke:#000000;stroke-width:1.0;stroke-dasharray:2.0,2.0;" x1="2235" x2="2916.5" y1="2303.9648" y2="2303.9648"/><text fill="#000000" font-family="Verdana" font-size="22" font-weight="bold" lengthAdjust="spacing" textLength="362" x="2240" y="2327.4829">[Signal == "PASSWORD/RSA/ECC"]</text><line style="stroke:#000000;stroke-width:2.0;" x1="2403" x2="2445" y1="2370.893" y2="2370.893"/><line style="stroke:#000000;stroke-width:2.0;" x1="2445" x2="2445" y1="2370.893" y2="2383.893"/><line style="stroke:#000000;stroke-width:2.0;" x1="2404" x2="2445" y1="2383.893" y2="2383.893"/><polygon fill="#000000" points="2414,2379.893,2404,2383.893,2414,2387.893,2410,2383.893" style="stroke:#000000;stroke-width:1.0;"/><text fill="#000000" font-family="Verdana" font-size="22" lengthAdjust="spacing" textLength="226" x="2410" y="2362.447">Set current_data_type</text><line style="stroke:#000000;stroke-width:1.0;stroke-dasharray:2.0,2.0;" x1="2235" x2="2916.5" y1="2392.893" y2="2392.893"/><text fill="#000000" font-family="Verdana" font-size="22" font-weight="bold" lengthAdjust="spacing" textLength="237" x="2240" y="2416.4111">[Regular data packet]</text><polygon fill="#000000" points="2736,2455.8212,2746,2459.8212,2736,2463.8212,2740,2459.8212" style="stroke:#000000;stroke-width:1.0;"/><line style="stroke:#000000;stroke-width:2.0;" x1="2403" x2="2742" y1="2459.8212" y2="2459.8212"/><text fill="#000000" font-family="Verdana" font-size="22" lengthAdjust="spacing" textLength="283" x="2434" y="2451.3752">Find matching ASCII values</text><polygon fill="#000000" points="2414,2499.7853,2404,2503.7853,2414,2507.7853,2410,2503.7853" style="stroke:#000000;stroke-width:1.0;"/><line style="stroke:#000000;stroke-width:2.0;stroke-dasharray:2.0,2.0;" x1="2408" x2="2747" y1="2503.7853" y2="2503.7853"/><text fill="#000000" font-family="Verdana" font-size="22" lengthAdjust="spacing" textLength="178" x="2486.5" y="2495.3393">Return ASCII pair</text><line style="stroke:#000000;stroke-width:2.0;" x1="2403" x2="2445" y1="2547.7494" y2="2547.7494"/><line style="stroke:#000000;stroke-width:2.0;" x1="2445" x2="2445" y1="2547.7494" y2="2560.7494"/><line style="stroke:#000000;stroke-width:2.0;" x1="2404" x2="2445" y1="2560.7494" y2="2560.7494"/><polygon fill="#000000" points="2414,2556.7494,2404,2560.7494,2414,2564.7494,2410,2560.7494" style="stroke:#000000;stroke-width:1.0;"/><text fill="#000000" font-family="Verdana" font-size="22" lengthAdjust="spacing" textLength="298" x="2410" y="2539.3034">Add to current_transmission</text><rect fill="#F5F5F5" height="3" style="stroke:#F5F5F5;stroke-width:1.0;" width="3355.5" x="5" y="2610.7315"/><line style="stroke:#A9A9A9;stroke-width:0.5;" x1="5" x2="3360.5" y1="2610.7315" y2="2610.7315"/><line style="stroke:#A9A9A9;stroke-width:0.5;" x1="5" x2="3360.5" y1="2613.7315" y2="2613.7315"/><rect fill="#F5F5F5" height="37.9641" style="stroke:#A9A9A9;stroke-width:1.0;" width="226" x="1569.75" y="2592.7494"/><text fill="#000000" font-family="Verdana" font-size="22" font-weight="bold" lengthAdjust="spacing" textLength="206" x="1575.75" y="2620.2675">Report Generation</text><path d="M1940.5,2647.7135 L2034.5,2647.7135 L2034.5,2669.6776 L2024.5,2679.6776 L1940.5,2679.6776 L1940.5,2647.7135 " fill="#FFFFFF" style="stroke:#000000;stroke-width:1.0;"/><rect fill="none" height="309.7128" style="stroke:#000000;stroke-width:1.0;" width="1349" x="1940.5" y="2647.7135"/><text fill="#000000" font-family="Verdana" font-size="22" font-weight="bold" lengthAdjust="spacing" textLength="49" x="1955.5" y="2672.2316">loop</text><text fill="#000000" font-family="Verdana" font-size="22" font-weight="bold" lengthAdjust="spacing" textLength="435" x="2049.5" y="2673.2316">[for each data type (password, rsa, ecc)]</text><path d="M1950.5,2701.6417 L2025.5,2701.6417 L2025.5,2723.6058 L2015.5,2733.6058 L1950.5,2733.6058 L1950.5,2701.6417 " fill="#FFFFFF" style="stroke:#000000;stroke-width:1.0;"/><rect fill="none" height="248.7846" style="stroke:#000000;stroke-width:1.0;" width="1329" x="1950.5" y="2701.6417"/><text fill="#000000" font-family="Verdana" font-size="22" font-weight="bold" lengthAdjust="spacing" textLength="30" x="1965.5" y="2726.1598">alt</text><text fill="#000000" font-family="Verdana" font-size="22" font-weight="bold" lengthAdjust="spacing" textLength="217" x="2040.5" y="2727.1598">[Has collected data]</text><polygon fill="#000000" points="3018.5,2780.534,3028.5,2784.534,3018.5,2788.534,3022.5,2784.534" style="stroke:#000000;stroke-width:1.0;"/><line style="stroke:#000000;stroke-width:2.0;" x1="2057" x2="3024.5" y1="2784.534" y2="2784.534"/><text fill="#000000" font-family="Verdana" font-size="22" lengthAdjust="spacing" textLength="166" x="2460.75" y="2776.088">Generate report</text><line style="stroke:#000000;stroke-width:2.0;" x1="3030.5" x2="3072.5" y1="2828.4981" y2="2828.4981"/><line style="stroke:#000000;stroke-width:2.0;" x1="3072.5" x2="3072.5" y1="2828.4981" y2="2841.4981"/><line style="stroke:#000000;stroke-width:2.0;" x1="3031.5" x2="3072.5" y1="2841.4981" y2="2841.4981"/><polygon fill="#000000" points="3041.5,2837.4981,3031.5,2841.4981,3041.5,2845.4981,3037.5,2841.4981" style="stroke:#000000;stroke-width:1.0;"/><text fill="#000000" font-family="Verdana" font-size="22" lengthAdjust="spacing" textLength="176" x="3037.5" y="2820.0521">Create report file</text><line style="stroke:#000000;stroke-width:2.0;" x1="3030.5" x2="3072.5" y1="2885.4622" y2="2885.4622"/><line style="stroke:#000000;stroke-width:2.0;" x1="3072.5" x2="3072.5" y1="2885.4622" y2="2898.4622"/><line style="stroke:#000000;stroke-width:2.0;" x1="3031.5" x2="3072.5" y1="2898.4622" y2="2898.4622"/><polygon fill="#000000" points="3041.5,2894.4622,3031.5,2898.4622,3041.5,2902.4622,3037.5,2898.4622" style="stroke:#000000;stroke-width:1.0;"/><text fill="#000000" font-family="Verdana" font-size="22" lengthAdjust="spacing" textLength="230" x="3037.5" y="2877.0162">Format and write data</text><polygon fill="#000000" points="2068,2938.4263,2058,2942.4263,2068,2946.4263,2064,2942.4263" style="stroke:#000000;stroke-width:1.0;"/><line style="stroke:#000000;stroke-width:2.0;stroke-dasharray:2.0,2.0;" x1="2062" x2="3029.5" y1="2942.4263" y2="2942.4263"/><text fill="#000000" font-family="Verdana" font-size="22" lengthAdjust="spacing" textLength="183" x="2452.25" y="2933.9803">Report generated</text><line style="stroke:#000000;stroke-width:2.0;" x1="2057" x2="2099" y1="3000.3904" y2="3000.3904"/><line style="stroke:#000000;stroke-width:2.0;" x1="2099" x2="2099" y1="3000.3904" y2="3013.3904"/><line style="stroke:#000000;stroke-width:2.0;" x1="2058" x2="2099" y1="3013.3904" y2="3013.3904"/><polygon fill="#000000" points="2068,3009.3904,2058,3013.3904,2068,3017.3904,2064,3013.3904" style="stroke:#000000;stroke-width:1.0;"/><text fill="#000000" font-family="Verdana" font-size="22" lengthAdjust="spacing" textLength="226" x="2064" y="2991.9444">Reset data collections</text><line style="stroke:#000000;stroke-width:2.0;" x1="2057" x2="2099" y1="3057.3545" y2="3057.3545"/><line style="stroke:#000000;stroke-width:2.0;" x1="2099" x2="2099" y1="3057.3545" y2="3070.3545"/><line style="stroke:#000000;stroke-width:2.0;" x1="2058" x2="2099" y1="3070.3545" y2="3070.3545"/><polygon fill="#000000" points="2068,3066.3545,2058,3070.3545,2068,3074.3545,2064,3070.3545" style="stroke:#000000;stroke-width:1.0;"/><text fill="#000000" font-family="Verdana" font-size="22" lengthAdjust="spacing" textLength="151" x="2064" y="3048.9085">Clear PCAP file</text><polygon fill="#000000" points="1760,3110.3186,1750,3114.3186,1760,3118.3186,1756,3114.3186" style="stroke:#000000;stroke-width:1.0;"/><line style="stroke:#000000;stroke-width:2.0;stroke-dasharray:2.0,2.0;" x1="1754" x2="2056" y1="3114.3186" y2="3114.3186"/><text fill="#000000" font-family="Verdana" font-size="22" lengthAdjust="spacing" textLength="188" x="1809" y="3105.8726">Analysis complete</text><rect fill="#F5F5F5" height="3" style="stroke:#F5F5F5;stroke-width:1.0;" width="3355.5" x="5" y="3150.3007"/><line style="stroke:#A9A9A9;stroke-width:0.5;" x1="5" x2="3360.5" y1="3150.3007" y2="3150.3007"/><line style="stroke:#A9A9A9;stroke-width:0.5;" x1="5" x2="3360.5" y1="3153.3007" y2="3153.3007"/><rect fill="#F5F5F5" height="37.9641" style="stroke:#A9A9A9;stroke-width:1.0;" width="131" x="1617.25" y="3132.3186"/><text fill="#000000" font-family="Verdana" font-size="22" font-weight="bold" lengthAdjust="spacing" textLength="111" x="1623.25" y="3159.8367">Shutdown</text><polygon fill="#000000" points="1289,3212.2468,1299,3216.2468,1289,3220.2468,1293,3216.2468" style="stroke:#000000;stroke-width:1.0;"/><line style="stroke:#000000;stroke-width:2.0;" x1="37" x2="1295" y1="3216.2468" y2="3216.2468"/><text fill="#000000" font-family="Verdana" font-size="22" lengthAdjust="spacing" textLength="278" x="530" y="3207.8008">KeyboardInterrupt (Ctrl+C)</text><polygon fill="#000000" points="969,3256.2109,959,3260.2109,969,3264.2109,965,3260.2109" style="stroke:#000000;stroke-width:1.0;"/><line style="stroke:#000000;stroke-width:2.0;" x1="963" x2="1300" y1="3260.2109" y2="3260.2109"/><text fill="#000000" font-family="Verdana" font-size="22" lengthAdjust="spacing" textLength="134" x="1062.5" y="3251.7649">Stop sniffing</text><polygon fill="#000000" points="351,3300.175,341,3304.175,351,3308.175,347,3304.175" style="stroke:#000000;stroke-width:1.0;"/><line style="stroke:#000000;stroke-width:2.0;" x1="345" x2="957" y1="3304.175" y2="3304.175"/><text fill="#000000" font-family="Verdana" font-size="22" lengthAdjust="spacing" textLength="151" x="573.5" y="3295.729">Return control</text><polygon fill="#000000" points="48,3344.1391,38,3348.1391,48,3352.1391,44,3348.1391" style="stroke:#000000;stroke-width:1.0;"/><line style="stroke:#000000;stroke-width:2.0;stroke-dasharray:2.0,2.0;" x1="42" x2="339" y1="3348.1391" y2="3348.1391"/><text fill="#000000" font-family="Verdana" font-size="22" lengthAdjust="spacing" textLength="135" x="121" y="3339.6931">Program exit</text><!--SRC=[bLTRK-Cs57xthpZbeOK1kjE59sReJ6fWbodGJCpEFdg4VPAeaILNaic6NzyZMKfinuKqCmHRvw9p-SubFzabLWYrO5mcPiLbpJIhmE0_3Se29rghzVEI5ok9ni3d4POR_ifBr7-mOhNGgf5bgeJIy7t9BMQLMk4xCahJTyj_m_JgYsQR3ZTzMrxmcabxfwJDx4OWl2XHZcXy9FFO0YU2BoGKA2tg9Fa5xcMXaHc4EIa0mz_GT8HBdBD6jCg919-x_bbk1Uv8bwEadKc9FuJdXmnINYzHdsSDHU3ygwfhBXUGgbVK5j8ban85dCEZajoIurdm84bOuTw_6JAzupeSLPIRuvCZO0OUNPfwHA5OcTUegyOoovKqWNDAHmz46oepbjvo8_byJcO5viozxd6wmyXGi7epobLJtj7c1HFYXHxZxVuq3OTzYMA9nIgtl4BLsC3_tBwbZZIyWKacDc-OrsH3L4-Fa_PuQ8vM1K4XfvlpO5hDkDv6XPwdBOiQI58uohnYjbXIN79c2iwzQ92SPEdz_IEhw-6D2vIecSLSOwrqT6ZcNuQyJsZNIgyyHtXEakjhWYctd0d-vbC8rzT9uc00vx_xZ5_1h95W2irh2sjkby3qega8vIPnz1tVb6a2Uw6gYidoN7298wmxQ5o1-mzT-Fpwjr4osR4C1LAg9uiWb5erDPIyS59CRteYExlHDbg20odsx_5-PmwCiH9SbJZFeva1RbU1IxRnWchBdGIE7dCga6cOffCfpBd0BayVP55l02BO9NbMzdHsG1-vMqm1KSWnX6ENPRYyl3Zn_hImXpHG7vIglKl2FSofk94LowqdhQu4w1F0i7-hwoSTlYxHPwPNPvJ_5jjT4V_5X8t6BLsvFMIfu0IAhoY40i4sX5G8dxxEiLiozefWLIVAXyj-gqkF7sPiB52N0Qy1PPcuFnVAa2ouGOl5jYfy894wwGOkgFSNIfR6Y_PpEvPj_-2pJNE0-gqtOJHGJoeS6v-pYzDu4_oySndm1pVMR3tVDw3Rf2YHcYyM693fMvhXPizhJvq4glUugsLVQrk-qLYjAg_X0w7R7rRJh1cY8AWPedM0mCDK5tu4Wd4Zq1mWHutL0SfiAXgcl03gfHeDcUQRnG4ACce92DGuGcMMUTmCJ1lSFV7k9DWL3k4qrhYV6zsoTYAHCJQhdfeHlJFomW91db5N5gA5SY_67ipkBb3pRIgF-HdmqzzEMiy_kECBtJ0dMotXgWnOZHaGMv1-fAMj3pwdwbXGd4Oh8sj959AZx7aoUpxg5FxxshSJ3gdzhO5G8at5AOuXkoXeRdNKtpxT7AwyJJvDlLfGjoW_rZwTPDdtlsOtdsRPvDDjclwFgrppRxGcQEOkgxdTrBYxOuQBHj3yyGdlH71KTMUbk88xMZyWhXyj2LwPQ73NOZhyViJkGStFsbRK0UfWfoPbwQel-hKVlaw7QXSRmfpVUdfzUTiolFSkC3GVcJ4qsSepq8QT0HR5oHPDNsaIXQAWf3cXdSM3Qethr5My6A5TjxOIaQFF7RQLbhS_giO5xfIc9FX2McjgNdspTZ9x3IZ49Mw3PJzmxpUl_sWIxmiD5vq-zyW0t8wLM2Zj2hPiRAdM_QMpluFyYPiNnNHvxtvLwOPsqEFKQd6QdYJ3VQIpBH4Wug-CxbBLsmkfKrcjH5ZvYEeCyCruuNvdqOYroRy0]--></g></svg>