<?xml version="1.0" encoding="us-ascii" standalone="no"?><svg xmlns="http://www.w3.org/2000/svg" xmlns:xlink="http://www.w3.org/1999/xlink" contentStyleType="text/css" height="2624px" preserveAspectRatio="none" style="width:2254px;height:2624px;background:#FFFFFF;" version="1.1" viewBox="0 0 2254 2624" width="2254px" zoomAndPan="magnify"><defs/><g><text fill="#000000" font-family="Verdana" font-size="24" font-weight="bold" lengthAdjust="spacing" textLength="734" x="758.75" y="40.6559">TLS Cipher-Suite-Hopping Covert Channel - Receiver Sequence</text><rect fill="#FFFFFF" height="267.7487" style="stroke:#000000;stroke-width:1.0;" width="926" x="1080.5" y="1070.0058"/><rect fill="#FFFFFF" height="88.9282" style="stroke:none;stroke-width:1.0;" width="926" x="1080.5" y="1248.8263"/><rect fill="#FFFFFF" height="552.4974" style="stroke:#000000;stroke-width:1.0;" width="1167" x="1070.5" y="1409.7187"/><rect fill="#FFFFFF" height="434.6051" style="stroke:#000000;stroke-width:1.0;" width="1147" x="1080.5" y="1520.611"/><rect fill="#FFFFFF" height="88.9282" style="stroke:none;stroke-width:1.0;" width="1147" x="1080.5" y="1866.2879"/><line style="stroke:#000000;stroke-width:1.0;" x1="37" x2="37" y1="149.652" y2="2529.8212"/><line style="stroke:#000000;stroke-width:1.0;" x1="339" x2="339" y1="149.652" y2="2529.8212"/><line style="stroke:#000000;stroke-width:1.0;" x1="646" x2="646" y1="149.652" y2="2529.8212"/><line style="stroke:#000000;stroke-width:1.0;" x1="887" x2="887" y1="149.652" y2="2529.8212"/><line style="stroke:#000000;stroke-width:1.0;" x1="1206.5" x2="1206.5" y1="149.652" y2="2529.8212"/><line style="stroke:#000000;stroke-width:1.0;" x1="1600.5" x2="1600.5" y1="149.652" y2="2529.8212"/><line style="stroke:#000000;stroke-width:1.0;" x1="1875.5" x2="1875.5" y1="149.652" y2="2529.8212"/><line style="stroke:#000000;stroke-width:1.0;" x1="2111.5" x2="2111.5" y1="149.652" y2="2529.8212"/><text fill="#000000" font-family="Verdana" font-size="22" lengthAdjust="spacing" textLength="48" x="10" y="143.206">User</text><ellipse cx="37" cy="67.6879" fill="#FFFFFF" rx="8" ry="8" style="stroke:#000000;stroke-width:1.0;"/><path d="M37,75.6879 L37,102.6879 M24,83.6879 L50,83.6879 M37,102.6879 L24,117.6879 M37,102.6879 L50,117.6879 " fill="none" style="stroke:#000000;stroke-width:1.0;"/><text fill="#000000" font-family="Verdana" font-size="22" lengthAdjust="spacing" textLength="48" x="10" y="2552.3393">User</text><ellipse cx="37" cy="2567.7853" fill="#FFFFFF" rx="8" ry="8" style="stroke:#000000;stroke-width:1.0;"/><path d="M37,2575.7853 L37,2602.7853 M24,2583.7853 L50,2583.7853 M37,2602.7853 L24,2617.7853 M37,2602.7853 L50,2617.7853 " fill="none" style="stroke:#000000;stroke-width:1.0;"/><rect fill="#FFFFFF" height="43.9641" rx="2.5" ry="2.5" style="stroke:#000000;stroke-width:1.0;" width="84" x="297" y="104.6879"/><text fill="#000000" font-family="Verdana" font-size="22" font-weight="bold" lengthAdjust="spacing" textLength="70" x="304" y="135.206">main()</text><rect fill="#FFFFFF" height="43.9641" rx="2.5" ry="2.5" style="stroke:#000000;stroke-width:1.0;" width="84" x="297" y="2528.8212"/><text fill="#000000" font-family="Verdana" font-size="22" font-weight="bold" lengthAdjust="spacing" textLength="70" x="304" y="2559.3393">main()</text><rect fill="#FFFFFF" height="43.9641" rx="2.5" ry="2.5" style="stroke:#000000;stroke-width:1.0;" width="220" x="536" y="104.6879"/><text fill="#000000" font-family="Verdana" font-size="22" font-weight="bold" lengthAdjust="spacing" textLength="206" x="543" y="135.206">threading.Thread()</text><rect fill="#FFFFFF" height="43.9641" rx="2.5" ry="2.5" style="stroke:#000000;stroke-width:1.0;" width="220" x="536" y="2528.8212"/><text fill="#000000" font-family="Verdana" font-size="22" font-weight="bold" lengthAdjust="spacing" textLength="206" x="543" y="2559.3393">threading.Thread()</text><rect fill="#FFFFFF" height="43.9641" rx="2.5" ry="2.5" style="stroke:#000000;stroke-width:1.0;" width="202" x="786" y="104.6879"/><text fill="#000000" font-family="Verdana" font-size="22" font-weight="bold" lengthAdjust="spacing" textLength="188" x="793" y="135.206">run_http_server()</text><rect fill="#FFFFFF" height="43.9641" rx="2.5" ry="2.5" style="stroke:#000000;stroke-width:1.0;" width="202" x="786" y="2528.8212"/><text fill="#000000" font-family="Verdana" font-size="22" font-weight="bold" lengthAdjust="spacing" textLength="188" x="793" y="2559.3393">run_http_server()</text><rect fill="#FFFFFF" height="43.9641" rx="2.5" ry="2.5" style="stroke:#000000;stroke-width:1.0;" width="213" x="1100.5" y="104.6879"/><text fill="#000000" font-family="Verdana" font-size="22" font-weight="bold" lengthAdjust="spacing" textLength="199" x="1107.5" y="135.206">run_https_server()</text><rect fill="#FFFFFF" height="43.9641" rx="2.5" ry="2.5" style="stroke:#000000;stroke-width:1.0;" width="213" x="1100.5" y="2528.8212"/><text fill="#000000" font-family="Verdana" font-size="22" font-weight="bold" lengthAdjust="spacing" textLength="199" x="1107.5" y="2559.3393">run_https_server()</text><rect fill="#FFFFFF" height="43.9641" rx="2.5" ry="2.5" style="stroke:#000000;stroke-width:1.0;" width="267" x="1467.5" y="104.6879"/><text fill="#000000" font-family="Verdana" font-size="22" font-weight="bold" lengthAdjust="spacing" textLength="253" x="1474.5" y="135.206">SimpleRequestHandler</text><rect fill="#FFFFFF" height="43.9641" rx="2.5" ry="2.5" style="stroke:#000000;stroke-width:1.0;" width="267" x="1467.5" y="2528.8212"/><text fill="#000000" font-family="Verdana" font-size="22" font-weight="bold" lengthAdjust="spacing" textLength="253" x="1474.5" y="2559.3393">SimpleRequestHandler</text><rect fill="#FFFFFF" height="43.9641" rx="2.5" ry="2.5" style="stroke:#000000;stroke-width:1.0;" width="222" x="1764.5" y="104.6879"/><text fill="#000000" font-family="Verdana" font-size="22" font-weight="bold" lengthAdjust="spacing" textLength="208" x="1771.5" y="135.206">wolfssl.SSLContext</text><rect fill="#FFFFFF" height="43.9641" rx="2.5" ry="2.5" style="stroke:#000000;stroke-width:1.0;" width="222" x="1764.5" y="2528.8212"/><text fill="#000000" font-family="Verdana" font-size="22" font-weight="bold" lengthAdjust="spacing" textLength="208" x="1771.5" y="2559.3393">wolfssl.SSLContext</text><rect fill="#FFFFFF" height="73.9282" rx="2.5" ry="2.5" style="stroke:#000000;stroke-width:1.0;" width="191" x="2016.5" y="74.7238"/><text fill="#000000" font-family="Verdana" font-size="22" font-weight="bold" lengthAdjust="spacing" textLength="76" x="2074" y="105.2419">Sender</text><text fill="#000000" font-family="Verdana" font-size="22" font-weight="bold" lengthAdjust="spacing" textLength="177" x="2023.5" y="135.206">(External Client)</text><rect fill="#FFFFFF" height="73.9282" rx="2.5" ry="2.5" style="stroke:#000000;stroke-width:1.0;" width="191" x="2016.5" y="2528.8212"/><text fill="#000000" font-family="Verdana" font-size="22" font-weight="bold" lengthAdjust="spacing" textLength="76" x="2074" y="2559.3393">Sender</text><text fill="#000000" font-family="Verdana" font-size="22" font-weight="bold" lengthAdjust="spacing" textLength="177" x="2023.5" y="2589.3034">(External Client)</text><rect fill="#F5F5F5" height="3" style="stroke:#F5F5F5;stroke-width:1.0;" width="2242.5" x="5" y="187.6341"/><line style="stroke:#A9A9A9;stroke-width:0.5;" x1="5" x2="2247.5" y1="187.6341" y2="187.6341"/><line style="stroke:#A9A9A9;stroke-width:0.5;" x1="5" x2="2247.5" y1="190.6341" y2="190.6341"/><rect fill="#F5F5F5" height="37.9641" style="stroke:#A9A9A9;stroke-width:1.0;" width="163" x="1044.75" y="169.652"/><text fill="#000000" font-family="Verdana" font-size="22" font-weight="bold" lengthAdjust="spacing" textLength="143" x="1050.75" y="197.1701">Initialization</text><polygon fill="#000000" points="327,249.5802,337,253.5802,327,257.5802,331,253.5802" style="stroke:#000000;stroke-width:1.0;"/><line style="stroke:#000000;stroke-width:2.0;" x1="37" x2="333" y1="253.5802" y2="253.5802"/><text fill="#000000" font-family="Verdana" font-size="22" lengthAdjust="spacing" textLength="107" x="134.5" y="245.1342">Run script</text><polygon fill="#000000" points="634,293.5443,644,297.5443,634,301.5443,638,297.5443" style="stroke:#000000;stroke-width:1.0;"/><line style="stroke:#000000;stroke-width:2.0;" x1="339" x2="640" y1="297.5443" y2="297.5443"/><text fill="#000000" font-family="Verdana" font-size="22" lengthAdjust="spacing" textLength="271" x="357" y="289.0983">Create HTTP server thread</text><polygon fill="#000000" points="634,337.5084,644,341.5084,634,345.5084,638,341.5084" style="stroke:#000000;stroke-width:1.0;"/><line style="stroke:#000000;stroke-width:2.0;" x1="339" x2="640" y1="341.5084" y2="341.5084"/><text fill="#000000" font-family="Verdana" font-size="22" lengthAdjust="spacing" textLength="283" x="351" y="333.0624">Create HTTPS server thread</text><polygon fill="#000000" points="634,381.4725,644,385.4725,634,389.4725,638,385.4725" style="stroke:#000000;stroke-width:1.0;"/><line style="stroke:#000000;stroke-width:2.0;" x1="339" x2="640" y1="385.4725" y2="385.4725"/><text fill="#000000" font-family="Verdana" font-size="22" lengthAdjust="spacing" textLength="183" x="401" y="377.0265">Start HTTP thread</text><polygon fill="#000000" points="634,425.4366,644,429.4366,634,433.4366,638,429.4366" style="stroke:#000000;stroke-width:1.0;"/><line style="stroke:#000000;stroke-width:2.0;" x1="339" x2="640" y1="429.4366" y2="429.4366"/><text fill="#000000" font-family="Verdana" font-size="22" lengthAdjust="spacing" textLength="195" x="395" y="420.9906">Start HTTPS thread</text><rect fill="#F5F5F5" height="3" style="stroke:#F5F5F5;stroke-width:1.0;" width="2242.5" x="5" y="465.4187"/><line style="stroke:#A9A9A9;stroke-width:0.5;" x1="5" x2="2247.5" y1="465.4187" y2="465.4187"/><line style="stroke:#A9A9A9;stroke-width:0.5;" x1="5" x2="2247.5" y1="468.4187" y2="468.4187"/><rect fill="#F5F5F5" height="37.9641" style="stroke:#A9A9A9;stroke-width:1.0;" width="303" x="974.75" y="447.4366"/><text fill="#000000" font-family="Verdana" font-size="22" font-weight="bold" lengthAdjust="spacing" textLength="283" x="980.75" y="474.9547">HTTP Server Initialization</text><polygon fill="#000000" points="875,527.3648,885,531.3648,875,535.3648,879,531.3648" style="stroke:#000000;stroke-width:1.0;"/><line style="stroke:#000000;stroke-width:2.0;" x1="646" x2="881" y1="531.3648" y2="531.3648"/><text fill="#000000" font-family="Verdana" font-size="22" lengthAdjust="spacing" textLength="171" x="681" y="522.9188">Run HTTP server</text><line style="stroke:#000000;stroke-width:2.0;" x1="887" x2="929" y1="575.3289" y2="575.3289"/><line style="stroke:#000000;stroke-width:2.0;" x1="929" x2="929" y1="575.3289" y2="588.3289"/><line style="stroke:#000000;stroke-width:2.0;" x1="888" x2="929" y1="588.3289" y2="588.3289"/><polygon fill="#000000" points="898,584.3289,888,588.3289,898,592.3289,894,588.3289" style="stroke:#000000;stroke-width:1.0;"/><text fill="#000000" font-family="Verdana" font-size="22" lengthAdjust="spacing" textLength="306" x="894" y="566.8829">Create HTTPServer on port 80</text><line style="stroke:#000000;stroke-width:2.0;" x1="887" x2="929" y1="632.293" y2="632.293"/><line style="stroke:#000000;stroke-width:2.0;" x1="929" x2="929" y1="632.293" y2="645.293"/><line style="stroke:#000000;stroke-width:2.0;" x1="888" x2="929" y1="645.293" y2="645.293"/><polygon fill="#000000" points="898,641.293,888,645.293,898,649.293,894,645.293" style="stroke:#000000;stroke-width:1.0;"/><text fill="#000000" font-family="Verdana" font-size="22" lengthAdjust="spacing" textLength="232" x="894" y="623.847">Listen for connections</text><path d="M892,658.293 L892,727.293 L1200,727.293 L1200,668.293 L1190,658.293 L892,658.293 " fill="#FFFFFF" style="stroke:#000000;stroke-width:1.0;"/><path d="M1190,658.293 L1190,668.293 L1200,668.293 L1190,658.293 " fill="#FFFFFF" style="stroke:#000000;stroke-width:1.0;"/><text fill="#000000" font-family="Verdana" font-size="22" lengthAdjust="spacing" textLength="281" x="898" y="686.8111">Provides a web interface to</text><text fill="#000000" font-family="Verdana" font-size="22" lengthAdjust="spacing" textLength="284" x="898" y="716.7752">confirm receiver is running</text><rect fill="#F5F5F5" height="3" style="stroke:#F5F5F5;stroke-width:1.0;" width="2242.5" x="5" y="761.2033"/><line style="stroke:#A9A9A9;stroke-width:0.5;" x1="5" x2="2247.5" y1="761.2033" y2="761.2033"/><line style="stroke:#A9A9A9;stroke-width:0.5;" x1="5" x2="2247.5" y1="764.2033" y2="764.2033"/><rect fill="#F5F5F5" height="37.9641" style="stroke:#A9A9A9;stroke-width:1.0;" width="361" x="945.75" y="743.2212"/><text fill="#000000" font-family="Verdana" font-size="22" font-weight="bold" lengthAdjust="spacing" textLength="341" x="951.75" y="770.7393">HTTPS/TLS Server Initialization</text><polygon fill="#000000" points="1195,823.1494,1205,827.1494,1195,831.1494,1199,827.1494" style="stroke:#000000;stroke-width:1.0;"/><line style="stroke:#000000;stroke-width:2.0;" x1="646" x2="1201" y1="827.1494" y2="827.1494"/><text fill="#000000" font-family="Verdana" font-size="22" lengthAdjust="spacing" textLength="183" x="835" y="818.7034">Run HTTPS server</text><line style="stroke:#000000;stroke-width:2.0;" x1="1207" x2="1249" y1="871.1135" y2="871.1135"/><line style="stroke:#000000;stroke-width:2.0;" x1="1249" x2="1249" y1="871.1135" y2="884.1135"/><line style="stroke:#000000;stroke-width:2.0;" x1="1208" x2="1249" y1="884.1135" y2="884.1135"/><polygon fill="#000000" points="1218,880.1135,1208,884.1135,1218,888.1135,1214,884.1135" style="stroke:#000000;stroke-width:1.0;"/><text fill="#000000" font-family="Verdana" font-size="22" lengthAdjust="spacing" textLength="140" x="1214" y="862.6675">Create socket</text><line style="stroke:#000000;stroke-width:2.0;" x1="1207" x2="1249" y1="928.0776" y2="928.0776"/><line style="stroke:#000000;stroke-width:2.0;" x1="1249" x2="1249" y1="928.0776" y2="941.0776"/><line style="stroke:#000000;stroke-width:2.0;" x1="1208" x2="1249" y1="941.0776" y2="941.0776"/><polygon fill="#000000" points="1218,937.0776,1208,941.0776,1218,945.0776,1214,941.0776" style="stroke:#000000;stroke-width:1.0;"/><text fill="#000000" font-family="Verdana" font-size="22" lengthAdjust="spacing" textLength="170" x="1214" y="919.6316">Bind to port 443</text><line style="stroke:#000000;stroke-width:2.0;" x1="1207" x2="1249" y1="985.0417" y2="985.0417"/><line style="stroke:#000000;stroke-width:2.0;" x1="1249" x2="1249" y1="985.0417" y2="998.0417"/><line style="stroke:#000000;stroke-width:2.0;" x1="1208" x2="1249" y1="998.0417" y2="998.0417"/><polygon fill="#000000" points="1218,994.0417,1208,998.0417,1218,1002.0417,1214,998.0417" style="stroke:#000000;stroke-width:1.0;"/><text fill="#000000" font-family="Verdana" font-size="22" lengthAdjust="spacing" textLength="146" x="1214" y="976.5957">Start listening</text><line style="stroke:#000000;stroke-width:2.0;" x1="1207" x2="1249" y1="1042.0058" y2="1042.0058"/><line style="stroke:#000000;stroke-width:2.0;" x1="1249" x2="1249" y1="1042.0058" y2="1055.0058"/><line style="stroke:#000000;stroke-width:2.0;" x1="1208" x2="1249" y1="1055.0058" y2="1055.0058"/><polygon fill="#000000" points="1218,1051.0058,1208,1055.0058,1218,1059.0058,1214,1055.0058" style="stroke:#000000;stroke-width:1.0;"/><text fill="#000000" font-family="Verdana" font-size="22" lengthAdjust="spacing" textLength="338" x="1214" y="1033.5598">Check for cert.pem and key.pem</text><path d="M1080.5,1070.0058 L1155.5,1070.0058 L1155.5,1091.9699 L1145.5,1101.9699 L1080.5,1101.9699 L1080.5,1070.0058 " fill="#FFFFFF" style="stroke:#000000;stroke-width:1.0;"/><rect fill="none" height="267.7487" style="stroke:#000000;stroke-width:1.0;" width="926" x="1080.5" y="1070.0058"/><text fill="#000000" font-family="Verdana" font-size="22" font-weight="bold" lengthAdjust="spacing" textLength="30" x="1095.5" y="1094.5239">alt</text><text fill="#000000" font-family="Verdana" font-size="22" font-weight="bold" lengthAdjust="spacing" textLength="244" x="1170.5" y="1095.5239">[Certificate files exist]</text><polygon fill="#000000" points="1863.5,1148.8981,1873.5,1152.8981,1863.5,1156.8981,1867.5,1152.8981" style="stroke:#000000;stroke-width:1.0;"/><line style="stroke:#000000;stroke-width:2.0;" x1="1207" x2="1869.5" y1="1152.8981" y2="1152.8981"/><text fill="#000000" font-family="Verdana" font-size="22" lengthAdjust="spacing" textLength="193" x="1444.75" y="1144.4521">Create TLS context</text><polygon fill="#000000" points="1863.5,1192.8622,1873.5,1196.8622,1863.5,1200.8622,1867.5,1196.8622" style="stroke:#000000;stroke-width:1.0;"/><line style="stroke:#000000;stroke-width:2.0;" x1="1207" x2="1869.5" y1="1196.8622" y2="1196.8622"/><text fill="#000000" font-family="Verdana" font-size="22" lengthAdjust="spacing" textLength="223" x="1429.75" y="1188.4162">Load certificate chain</text><polygon fill="#000000" points="1218,1236.8263,1208,1240.8263,1218,1244.8263,1214,1240.8263" style="stroke:#000000;stroke-width:1.0;"/><line style="stroke:#000000;stroke-width:2.0;stroke-dasharray:2.0,2.0;" x1="1212" x2="1874.5" y1="1240.8263" y2="1240.8263"/><text fill="#000000" font-family="Verdana" font-size="22" lengthAdjust="spacing" textLength="297" x="1392.75" y="1232.3803">Context created successfully</text><line style="stroke:#000000;stroke-width:1.0;stroke-dasharray:2.0,2.0;" x1="1080.5" x2="2006.5" y1="1249.8263" y2="1249.8263"/><text fill="#000000" font-family="Verdana" font-size="22" font-weight="bold" lengthAdjust="spacing" textLength="276" x="1085.5" y="1273.3444">[Certificate files missing]</text><line style="stroke:#000000;stroke-width:2.0;" x1="1207" x2="1249" y1="1316.7546" y2="1316.7546"/><line style="stroke:#000000;stroke-width:2.0;" x1="1249" x2="1249" y1="1316.7546" y2="1329.7546"/><line style="stroke:#000000;stroke-width:2.0;" x1="1208" x2="1249" y1="1329.7546" y2="1329.7546"/><polygon fill="#000000" points="1218,1325.7546,1208,1329.7546,1218,1333.7546,1214,1329.7546" style="stroke:#000000;stroke-width:1.0;"/><text fill="#000000" font-family="Verdana" font-size="22" lengthAdjust="spacing" textLength="215" x="1214" y="1308.3085">Log error and return</text><rect fill="#F5F5F5" height="3" style="stroke:#F5F5F5;stroke-width:1.0;" width="2242.5" x="5" y="1372.7366"/><line style="stroke:#A9A9A9;stroke-width:0.5;" x1="5" x2="2247.5" y1="1372.7366" y2="1372.7366"/><line style="stroke:#A9A9A9;stroke-width:0.5;" x1="5" x2="2247.5" y1="1375.7366" y2="1375.7366"/><rect fill="#F5F5F5" height="37.9641" style="stroke:#A9A9A9;stroke-width:1.0;" width="311" x="970.75" y="1354.7546"/><text fill="#000000" font-family="Verdana" font-size="22" font-weight="bold" lengthAdjust="spacing" textLength="291" x="976.75" y="1382.2726">Connection Handling Loop</text><path d="M1070.5,1409.7187 L1164.5,1409.7187 L1164.5,1431.6828 L1154.5,1441.6828 L1070.5,1441.6828 L1070.5,1409.7187 " fill="#FFFFFF" style="stroke:#000000;stroke-width:1.0;"/><rect fill="none" height="552.4974" style="stroke:#000000;stroke-width:1.0;" width="1167" x="1070.5" y="1409.7187"/><text fill="#000000" font-family="Verdana" font-size="22" font-weight="bold" lengthAdjust="spacing" textLength="49" x="1085.5" y="1434.2367">loop</text><text fill="#000000" font-family="Verdana" font-size="22" font-weight="bold" lengthAdjust="spacing" textLength="201" x="1179.5" y="1435.2367">[until interrupted]</text><line style="stroke:#000000;stroke-width:2.0;" x1="1207" x2="1249" y1="1492.611" y2="1492.611"/><line style="stroke:#000000;stroke-width:2.0;" x1="1249" x2="1249" y1="1492.611" y2="1505.611"/><line style="stroke:#000000;stroke-width:2.0;" x1="1208" x2="1249" y1="1505.611" y2="1505.611"/><polygon fill="#000000" points="1218,1501.611,1208,1505.611,1218,1509.611,1214,1505.611" style="stroke:#000000;stroke-width:1.0;"/><text fill="#000000" font-family="Verdana" font-size="22" lengthAdjust="spacing" textLength="292" x="1214" y="1484.1649">Wait for connection (accept)</text><path d="M1080.5,1520.611 L1155.5,1520.611 L1155.5,1542.5751 L1145.5,1552.5751 L1080.5,1552.5751 L1080.5,1520.611 " fill="#FFFFFF" style="stroke:#000000;stroke-width:1.0;"/><rect fill="none" height="434.6051" style="stroke:#000000;stroke-width:1.0;" width="1147" x="1080.5" y="1520.611"/><text fill="#000000" font-family="Verdana" font-size="22" font-weight="bold" lengthAdjust="spacing" textLength="30" x="1095.5" y="1545.129">alt</text><text fill="#000000" font-family="Verdana" font-size="22" font-weight="bold" lengthAdjust="spacing" textLength="239" x="1170.5" y="1546.129">[Connection received]</text><polygon fill="#000000" points="1218,1599.5033,1208,1603.5033,1218,1607.5033,1214,1603.5033" style="stroke:#000000;stroke-width:1.0;"/><line style="stroke:#000000;stroke-width:2.0;" x1="1212" x2="2111" y1="1603.5033" y2="1603.5033"/><text fill="#000000" font-family="Verdana" font-size="22" lengthAdjust="spacing" textLength="237" x="1541" y="1595.0572">Initiate TLS connection</text><polygon fill="#000000" points="1863.5,1643.4674,1873.5,1647.4674,1863.5,1651.4674,1867.5,1647.4674" style="stroke:#000000;stroke-width:1.0;"/><line style="stroke:#000000;stroke-width:2.0;" x1="1207" x2="1869.5" y1="1647.4674" y2="1647.4674"/><text fill="#000000" font-family="Verdana" font-size="22" lengthAdjust="spacing" textLength="128" x="1477.25" y="1639.0213">Wrap socket</text><polygon fill="#000000" points="1218,1687.4315,1208,1691.4315,1218,1695.4315,1214,1691.4315" style="stroke:#000000;stroke-width:1.0;"/><line style="stroke:#000000;stroke-width:2.0;stroke-dasharray:2.0,2.0;" x1="1212" x2="1874.5" y1="1691.4315" y2="1691.4315"/><text fill="#000000" font-family="Verdana" font-size="22" lengthAdjust="spacing" textLength="219" x="1431.75" y="1682.9854">Return secure socket</text><path d="M1212,1704.4315 L1212,1803.4315 L1696,1803.4315 L1696,1714.4315 L1686,1704.4315 L1212,1704.4315 " fill="#FFFFFF" style="stroke:#000000;stroke-width:1.0;"/><path d="M1686,1704.4315 L1686,1714.4315 L1696,1714.4315 L1686,1704.4315 " fill="#FFFFFF" style="stroke:#000000;stroke-width:1.0;"/><text fill="#000000" font-family="Verdana" font-size="22" lengthAdjust="spacing" textLength="407" x="1218" y="1732.9495">The covert channel data is extracted by</text><text fill="#000000" font-family="Verdana" font-size="22" lengthAdjust="spacing" textLength="422" x="1218" y="1762.9136">monitoring which cipher suites are used</text><text fill="#000000" font-family="Verdana" font-size="22" lengthAdjust="spacing" textLength="463" x="1218" y="1792.8778">in each connection (not shown in this script)</text><line style="stroke:#000000;stroke-width:2.0;" x1="1207" x2="1249" y1="1845.2879" y2="1845.2879"/><line style="stroke:#000000;stroke-width:2.0;" x1="1249" x2="1249" y1="1845.2879" y2="1858.2879"/><line style="stroke:#000000;stroke-width:2.0;" x1="1208" x2="1249" y1="1858.2879" y2="1858.2879"/><polygon fill="#000000" points="1218,1854.2879,1208,1858.2879,1218,1862.2879,1214,1858.2879" style="stroke:#000000;stroke-width:1.0;"/><text fill="#000000" font-family="Verdana" font-size="22" lengthAdjust="spacing" textLength="380" x="1214" y="1836.8419">Close secure socket after handshake</text><line style="stroke:#000000;stroke-width:1.0;stroke-dasharray:2.0,2.0;" x1="1080.5" x2="2227.5" y1="1867.2879" y2="1867.2879"/><text fill="#000000" font-family="Verdana" font-size="22" font-weight="bold" lengthAdjust="spacing" textLength="324" x="1085.5" y="1890.806">[KeyboardInterrupt received]</text><line style="stroke:#000000;stroke-width:2.0;" x1="1207" x2="1249" y1="1934.2161" y2="1934.2161"/><line style="stroke:#000000;stroke-width:2.0;" x1="1249" x2="1249" y1="1934.2161" y2="1947.2161"/><line style="stroke:#000000;stroke-width:2.0;" x1="1208" x2="1249" y1="1947.2161" y2="1947.2161"/><polygon fill="#000000" points="1218,1943.2161,1208,1947.2161,1218,1951.2161,1214,1947.2161" style="stroke:#000000;stroke-width:1.0;"/><text fill="#000000" font-family="Verdana" font-size="22" lengthAdjust="spacing" textLength="111" x="1214" y="1925.7701">Break loop</text><rect fill="#F5F5F5" height="3" style="stroke:#F5F5F5;stroke-width:1.0;" width="2242.5" x="5" y="1997.1981"/><line style="stroke:#A9A9A9;stroke-width:0.5;" x1="5" x2="2247.5" y1="1997.1981" y2="1997.1981"/><line style="stroke:#A9A9A9;stroke-width:0.5;" x1="5" x2="2247.5" y1="2000.1981" y2="2000.1981"/><rect fill="#F5F5F5" height="37.9641" style="stroke:#A9A9A9;stroke-width:1.0;" width="279" x="986.75" y="1979.2161"/><text fill="#000000" font-family="Verdana" font-size="22" font-weight="bold" lengthAdjust="spacing" textLength="259" x="992.75" y="2006.7342">HTTP Request Handling</text><polygon fill="#000000" points="898,2059.1443,888,2063.1443,898,2067.1443,894,2063.1443" style="stroke:#000000;stroke-width:1.0;"/><line style="stroke:#000000;stroke-width:2.0;" x1="892" x2="2111" y1="2063.1443" y2="2063.1443"/><text fill="#000000" font-family="Verdana" font-size="22" lengthAdjust="spacing" textLength="185" x="1407" y="2054.6983">HTTP GET request</text><polygon fill="#000000" points="1589,2103.1084,1599,2107.1084,1589,2111.1084,1593,2107.1084" style="stroke:#000000;stroke-width:1.0;"/><line style="stroke:#000000;stroke-width:2.0;" x1="887" x2="1595" y1="2107.1084" y2="2107.1084"/><text fill="#000000" font-family="Verdana" font-size="22" lengthAdjust="spacing" textLength="160" x="1164" y="2098.6624">Handle request</text><line style="stroke:#000000;stroke-width:2.0;" x1="1601" x2="1643" y1="2151.0725" y2="2151.0725"/><line style="stroke:#000000;stroke-width:2.0;" x1="1643" x2="1643" y1="2151.0725" y2="2164.0725"/><line style="stroke:#000000;stroke-width:2.0;" x1="1602" x2="1643" y1="2164.0725" y2="2164.0725"/><polygon fill="#000000" points="1612,2160.0725,1602,2164.0725,1612,2168.0725,1608,2164.0725" style="stroke:#000000;stroke-width:1.0;"/><text fill="#000000" font-family="Verdana" font-size="22" lengthAdjust="spacing" textLength="235" x="1608" y="2142.6265">Set response code 200</text><line style="stroke:#000000;stroke-width:2.0;" x1="1601" x2="1643" y1="2208.0366" y2="2208.0366"/><line style="stroke:#000000;stroke-width:2.0;" x1="1643" x2="1643" y1="2208.0366" y2="2221.0366"/><line style="stroke:#000000;stroke-width:2.0;" x1="1602" x2="1643" y1="2221.0366" y2="2221.0366"/><polygon fill="#000000" points="1612,2217.0366,1602,2221.0366,1612,2225.0366,1608,2221.0366" style="stroke:#000000;stroke-width:1.0;"/><text fill="#000000" font-family="Verdana" font-size="22" lengthAdjust="spacing" textLength="252" x="1608" y="2199.5906">Set Content-type header</text><polygon fill="#000000" points="2100,2261.0007,2110,2265.0007,2100,2269.0007,2104,2265.0007" style="stroke:#000000;stroke-width:1.0;"/><line style="stroke:#000000;stroke-width:2.0;" x1="1601" x2="2106" y1="2265.0007" y2="2265.0007"/><text fill="#000000" font-family="Verdana" font-size="22" lengthAdjust="spacing" textLength="385" x="1664" y="2256.5547">Send "Receiver is running!" response</text><rect fill="#F5F5F5" height="3" style="stroke:#F5F5F5;stroke-width:1.0;" width="2242.5" x="5" y="2300.9827"/><line style="stroke:#A9A9A9;stroke-width:0.5;" x1="5" x2="2247.5" y1="2300.9827" y2="2300.9827"/><line style="stroke:#A9A9A9;stroke-width:0.5;" x1="5" x2="2247.5" y1="2303.9827" y2="2303.9827"/><rect fill="#F5F5F5" height="37.9641" style="stroke:#A9A9A9;stroke-width:1.0;" width="131" x="1060.75" y="2283.0007"/><text fill="#000000" font-family="Verdana" font-size="22" font-weight="bold" lengthAdjust="spacing" textLength="111" x="1066.75" y="2310.5188">Shutdown</text><polygon fill="#000000" points="327,2362.9289,337,2366.9289,327,2370.9289,331,2366.9289" style="stroke:#000000;stroke-width:1.0;"/><line style="stroke:#000000;stroke-width:2.0;" x1="37" x2="333" y1="2366.9289" y2="2366.9289"/><text fill="#000000" font-family="Verdana" font-size="22" lengthAdjust="spacing" textLength="278" x="49" y="2358.4829">KeyboardInterrupt (Ctrl+C)</text><polygon fill="#000000" points="875,2406.893,885,2410.893,875,2414.893,879,2410.893" style="stroke:#000000;stroke-width:1.0;"/><line style="stroke:#000000;stroke-width:2.0;" x1="339" x2="881" y1="2410.893" y2="2410.893"/><text fill="#000000" font-family="Verdana" font-size="22" lengthAdjust="spacing" textLength="170" x="528" y="2402.447">Interrupt thread</text><polygon fill="#000000" points="1195,2450.8571,1205,2454.8571,1195,2458.8571,1199,2454.8571" style="stroke:#000000;stroke-width:1.0;"/><line style="stroke:#000000;stroke-width:2.0;" x1="339" x2="1201" y1="2454.8571" y2="2454.8571"/><text fill="#000000" font-family="Verdana" font-size="22" lengthAdjust="spacing" textLength="170" x="688" y="2446.4111">Interrupt thread</text><line style="stroke:#000000;stroke-width:2.0;" x1="339" x2="381" y1="2498.8212" y2="2498.8212"/><line style="stroke:#000000;stroke-width:2.0;" x1="381" x2="381" y1="2498.8212" y2="2511.8212"/><line style="stroke:#000000;stroke-width:2.0;" x1="340" x2="381" y1="2511.8212" y2="2511.8212"/><polygon fill="#000000" points="350,2507.8212,340,2511.8212,350,2515.8212,346,2511.8212" style="stroke:#000000;stroke-width:1.0;"/><text fill="#000000" font-family="Verdana" font-size="22" lengthAdjust="spacing" textLength="136" x="346" y="2490.3752">Exit program</text><!--SRC=[bLRVRzis47xNNt7Don8Cpe8k3qE036ZLh2dc0eNb8Iy32eOwMOHeKYEfEkvVloCfwvSrDVE3G8lt7U- - - -weDwx4FK8jcL29hOIgcM5xiFXFWuhZEsFqOLiANYcq5jxEc7mGtqIEvZtZrSxeHkMfbjh0KoaSPdjTuG966tf6-m_CL1yDEmwiwUa45pLJxW-jNEQE4k5Potp6usSAZ-tmdHGx1HoLGvCaFy4dnGqoYr2G0x3YEze1ECU2DJ8wforuEypF2IUntxgTtUf3Ii9BsAupI4LTebbb3J6mUjHrBTGEKlqDZOEqP4gXX1LiaAEWTv2rAIG9uuwO-CjIx8FSuM9FnRcykW1cuRElqsZJbPHXJaTSRyEgDOn_KdgGpp72DEfhwLpzbGwY05h0utRx9GilvgtjZFcSVIRsjSIDJygwHwPoYIOWng_6e8EMXRNoEilMAV6ABov0-h-JCr2HSFvMbmylL6Z59AHIKD5ZQ76T9FVtL7_X19FYEtD2AxY_Jn9FBwn-3qpUmQPHOBaHjKly2xynOkuEmW93lX0PW4ZvAm3Pwn2Pe-JY2Qyrp4wMFik0ZBMOotZan7ljInq96EIMz7jJos5UqO3yrve2-krc0ROMrg6Y1ZJ0DMcV-xXieZJvCc9NEj35K7m0Nupsuy42WmC-W_3DN32Eu3JGDdafXDc3EJMGi40YLTG22Ua2lEUEbkmNtv7_bvifETc8dKcU4twivXMwHSltWiAaP09vjxU_BXh7cil0eaznEOOIUHMvfcbpNUCUgDsWmgDV9qpI1A8DKGZkOos499hnXPmJiG0JrttxTTbvDddRaZz0h3NBGnYdqtZfXvT7zMQmEakXtU3Xm1nimpaDzwAHyfYWf5b-di5UMEkvcObev7kjTu1qfPd0Ya7N6EKr4-IITkg4CAFyr5vhNGUTIBzeb1Cowj4qDGNtmmEVc70JwSCbeuHgTnN0uH7AqXkqmexU_IyEj3FdKSvzKLfy1rkepPDXzKcf9_Ebecm2LTG5l34u1NQBcPxkclhqsvOaX7WNylOkp9bZledfP4DN8DNy-JX0x3NbgOqlnu6-H4hWuNubOT3zIaE20chiW2sW2W4oRpWWdM83M-g3yhkkfEFYsB_gSDtiECjhiUEa9acEY05Ma4A0iijjoQheC2ZtJpm-QsRoJoS9dTTwSMvGIrJWfPYq0NVY3IEylM5x-NhbJiJJkWhs7n-s5430J0Ru-Aw-YnwnCnvlpm4ozBdPcaQzhtTENr0tDw_41HKgjtB76g6ayKm2EaV6l3o2wdQnERyCtbnq4GIAih9nkHV0-LV0ULqkKsVap-bLTnCFoUlD9jVrf3t_mogU-V12ew4sUaTVbCc_]--></g></svg>