<?xml version="1.0" encoding="us-ascii" standalone="no"?><svg xmlns="http://www.w3.org/2000/svg" xmlns:xlink="http://www.w3.org/1999/xlink" contentStyleType="text/css" height="2488px" preserveAspectRatio="none" style="width:2609px;height:2488px;background:#FFFFFF;" version="1.1" viewBox="0 0 2609 2488" width="2609px" zoomAndPan="magnify"><defs/><g><text fill="#000000" font-family="Verdana" font-size="24" font-weight="bold" lengthAdjust="spacing" textLength="842" x="882.25" y="40.6559">TLS Cipher-Suite-Hopping Covert Channel - Report Generator Sequence</text><rect fill="#FFFFFF" height="2200.2769" style="stroke:#000000;stroke-width:1.0;" width="2577.5" x="15" y="222.5802"/><rect fill="#FFFFFF" height="2109.3846" style="stroke:none;stroke-width:1.0;" width="2577.5" x="15" y="313.4725"/><rect fill="#FFFFFF" height="388.7128" style="stroke:#000000;stroke-width:1.0;" width="463" x="947" y="555.293"/><rect fill="#FFFFFF" height="502.5333" style="stroke:#000000;stroke-width:1.0;" width="1827.5" x="619" y="1578.5751"/><rect fill="#FFFFFF" height="151.8205" style="stroke:#000000;stroke-width:1.0;" width="1807.5" x="629" y="1922.2879"/><rect fill="#FFFFFF" height="90.8923" style="stroke:#000000;stroke-width:1.0;" width="1787.5" x="639" y="1976.2161"/><line style="stroke:#000000;stroke-width:1.0;" x1="104" x2="104" y1="103.652" y2="2439.8571"/><line style="stroke:#000000;stroke-width:1.0;" x1="763" x2="763" y1="103.652" y2="2439.8571"/><line style="stroke:#000000;stroke-width:1.0;" x1="1093" x2="1093" y1="103.652" y2="2439.8571"/><line style="stroke:#000000;stroke-width:1.0;" x1="1405" x2="1405" y1="103.652" y2="2439.8571"/><line style="stroke:#000000;stroke-width:1.0;" x1="1815" x2="1815" y1="103.652" y2="2439.8571"/><line style="stroke:#000000;stroke-width:1.0;" x1="2149.5" x2="2149.5" y1="103.652" y2="2439.8571"/><line style="stroke:#000000;stroke-width:1.0;" x1="2341.5" x2="2341.5" y1="103.652" y2="2439.8571"/><line style="stroke:#000000;stroke-width:1.0;" x1="2504.5" x2="2504.5" y1="103.652" y2="2439.8571"/><rect fill="#FFFFFF" height="43.9641" rx="2.5" ry="2.5" style="stroke:#000000;stroke-width:1.0;" width="138" x="35" y="58.6879"/><text fill="#000000" font-family="Verdana" font-size="22" font-weight="bold" lengthAdjust="spacing" textLength="124" x="42" y="89.206">monitor.py</text><rect fill="#FFFFFF" height="43.9641" rx="2.5" ry="2.5" style="stroke:#000000;stroke-width:1.0;" width="138" x="35" y="2438.8571"/><text fill="#000000" font-family="Verdana" font-size="22" font-weight="bold" lengthAdjust="spacing" textLength="124" x="42" y="2469.3752">monitor.py</text><rect fill="#FFFFFF" height="43.9641" rx="2.5" ry="2.5" style="stroke:#000000;stroke-width:1.0;" width="208" x="659" y="58.6879"/><text fill="#000000" font-family="Verdana" font-size="22" font-weight="bold" lengthAdjust="spacing" textLength="194" x="666" y="89.206">generate_report()</text><rect fill="#FFFFFF" height="43.9641" rx="2.5" ry="2.5" style="stroke:#000000;stroke-width:1.0;" width="208" x="659" y="2438.8571"/><text fill="#000000" font-family="Verdana" font-size="22" font-weight="bold" lengthAdjust="spacing" textLength="194" x="666" y="2469.3752">generate_report()</text><rect fill="#FFFFFF" height="43.9641" rx="2.5" ry="2.5" style="stroke:#000000;stroke-width:1.0;" width="252" x="967" y="58.6879"/><text fill="#000000" font-family="Verdana" font-size="22" font-weight="bold" lengthAdjust="spacing" textLength="238" x="974" y="89.206">Aggregated Statistics</text><rect fill="#FFFFFF" height="43.9641" rx="2.5" ry="2.5" style="stroke:#000000;stroke-width:1.0;" width="252" x="967" y="2438.8571"/><text fill="#000000" font-family="Verdana" font-size="22" font-weight="bold" lengthAdjust="spacing" textLength="238" x="974" y="2469.3752">Aggregated Statistics</text><rect fill="#FFFFFF" height="43.9641" rx="2.5" ry="2.5" style="stroke:#000000;stroke-width:1.0;" width="222" x="1294" y="58.6879"/><text fill="#000000" font-family="Verdana" font-size="22" font-weight="bold" lengthAdjust="spacing" textLength="208" x="1301" y="89.206">Statistical Analysis</text><rect fill="#FFFFFF" height="43.9641" rx="2.5" ry="2.5" style="stroke:#000000;stroke-width:1.0;" width="222" x="1294" y="2438.8571"/><text fill="#000000" font-family="Verdana" font-size="22" font-weight="bold" lengthAdjust="spacing" textLength="208" x="1301" y="2469.3752">Statistical Analysis</text><rect fill="#FFFFFF" height="43.9641" rx="2.5" ry="2.5" style="stroke:#000000;stroke-width:1.0;" width="286" x="1672" y="58.6879"/><text fill="#000000" font-family="Verdana" font-size="22" font-weight="bold" lengthAdjust="spacing" textLength="272" x="1679" y="89.206">Transmission Processing</text><rect fill="#FFFFFF" height="43.9641" rx="2.5" ry="2.5" style="stroke:#000000;stroke-width:1.0;" width="286" x="1672" y="2438.8571"/><text fill="#000000" font-family="Verdana" font-size="22" font-weight="bold" lengthAdjust="spacing" textLength="272" x="1679" y="2469.3752">Transmission Processing</text><rect fill="#FFFFFF" height="43.9641" rx="2.5" ry="2.5" style="stroke:#000000;stroke-width:1.0;" width="195" x="2052.5" y="58.6879"/><text fill="#000000" font-family="Verdana" font-size="22" font-weight="bold" lengthAdjust="spacing" textLength="181" x="2059.5" y="89.206">export_metrics()</text><rect fill="#FFFFFF" height="43.9641" rx="2.5" ry="2.5" style="stroke:#000000;stroke-width:1.0;" width="195" x="2052.5" y="2438.8571"/><text fill="#000000" font-family="Verdana" font-size="22" font-weight="bold" lengthAdjust="spacing" textLength="181" x="2059.5" y="2469.3752">export_metrics()</text><rect fill="#FFFFFF" height="43.9641" rx="2.5" ry="2.5" style="stroke:#000000;stroke-width:1.0;" width="129" x="2277.5" y="58.6879"/><text fill="#000000" font-family="Verdana" font-size="22" font-weight="bold" lengthAdjust="spacing" textLength="115" x="2284.5" y="89.206">ReportFile</text><rect fill="#FFFFFF" height="43.9641" rx="2.5" ry="2.5" style="stroke:#000000;stroke-width:1.0;" width="129" x="2277.5" y="2438.8571"/><text fill="#000000" font-family="Verdana" font-size="22" font-weight="bold" lengthAdjust="spacing" textLength="115" x="2284.5" y="2469.3752">ReportFile</text><rect fill="#FFFFFF" height="43.9641" rx="2.5" ry="2.5" style="stroke:#000000;stroke-width:1.0;" width="136" x="2436.5" y="58.6879"/><text fill="#000000" font-family="Verdana" font-size="22" font-weight="bold" lengthAdjust="spacing" textLength="122" x="2443.5" y="89.206">MetricsFile</text><rect fill="#FFFFFF" height="43.9641" rx="2.5" ry="2.5" style="stroke:#000000;stroke-width:1.0;" width="136" x="2436.5" y="2438.8571"/><text fill="#000000" font-family="Verdana" font-size="22" font-weight="bold" lengthAdjust="spacing" textLength="122" x="2443.5" y="2469.3752">MetricsFile</text><rect fill="#F5F5F5" height="3" style="stroke:#F5F5F5;stroke-width:1.0;" width="2597.5" x="5" y="141.6341"/><line style="stroke:#A9A9A9;stroke-width:0.5;" x1="5" x2="2602.5" y1="141.6341" y2="141.6341"/><line style="stroke:#A9A9A9;stroke-width:0.5;" x1="5" x2="2602.5" y1="144.6341" y2="144.6341"/><rect fill="#F5F5F5" height="37.9641" style="stroke:#A9A9A9;stroke-width:1.0;" width="316" x="1145.75" y="123.652"/><text fill="#000000" font-family="Verdana" font-size="22" font-weight="bold" lengthAdjust="spacing" textLength="296" x="1151.75" y="151.1701">Report Generation Process</text><polygon fill="#000000" points="751,203.5802,761,207.5802,751,211.5802,755,207.5802" style="stroke:#000000;stroke-width:1.0;"/><line style="stroke:#000000;stroke-width:2.0;" x1="104" x2="757" y1="207.5802" y2="207.5802"/><text fill="#000000" font-family="Verdana" font-size="22" lengthAdjust="spacing" textLength="635" x="116" y="199.1342">Call generate_report(data_type, collections, timestamps, etc.)</text><path d="M15,222.5802 L90,222.5802 L90,244.5443 L80,254.5443 L15,254.5443 L15,222.5802 " fill="#FFFFFF" style="stroke:#000000;stroke-width:1.0;"/><rect fill="none" height="2200.2769" style="stroke:#000000;stroke-width:1.0;" width="2577.5" x="15" y="222.5802"/><text fill="#000000" font-family="Verdana" font-size="22" font-weight="bold" lengthAdjust="spacing" textLength="30" x="30" y="247.0983">alt</text><text fill="#000000" font-family="Verdana" font-size="22" font-weight="bold" lengthAdjust="spacing" textLength="278" x="105" y="248.0983">[No transmissions found]</text><polygon fill="#000000" points="115,301.4725,105,305.4725,115,309.4725,111,305.4725" style="stroke:#000000;stroke-width:1.0;"/><line style="stroke:#000000;stroke-width:2.0;stroke-dasharray:2.0,2.0;" x1="109" x2="762" y1="305.4725" y2="305.4725"/><text fill="#000000" font-family="Verdana" font-size="22" lengthAdjust="spacing" textLength="302" x="282.5" y="297.0265">Return (no report generated)</text><line style="stroke:#000000;stroke-width:1.0;stroke-dasharray:2.0,2.0;" x1="15" x2="2592.5" y1="314.4725" y2="314.4725"/><text fill="#000000" font-family="Verdana" font-size="22" font-weight="bold" lengthAdjust="spacing" textLength="232" x="20" y="337.9906">[Transmissions exist]</text><line style="stroke:#000000;stroke-width:2.0;" x1="763" x2="805" y1="381.4007" y2="381.4007"/><line style="stroke:#000000;stroke-width:2.0;" x1="805" x2="805" y1="381.4007" y2="394.4007"/><line style="stroke:#000000;stroke-width:2.0;" x1="764" x2="805" y1="394.4007" y2="394.4007"/><polygon fill="#000000" points="774,390.4007,764,394.4007,774,398.4007,770,394.4007" style="stroke:#000000;stroke-width:1.0;"/><text fill="#000000" font-family="Verdana" font-size="22" lengthAdjust="spacing" textLength="196" x="770" y="372.9547">Initialize report file</text><polygon fill="#000000" points="2330,434.3648,2340,438.3648,2330,442.3648,2334,438.3648" style="stroke:#000000;stroke-width:1.0;"/><line style="stroke:#000000;stroke-width:2.0;" x1="763" x2="2336" y1="438.3648" y2="438.3648"/><text fill="#000000" font-family="Verdana" font-size="22" lengthAdjust="spacing" textLength="205" x="1450" y="429.9188">Write report header</text><rect fill="#F5F5F5" height="3" style="stroke:#F5F5F5;stroke-width:1.0;" width="2597.5" x="5" y="474.3469"/><line style="stroke:#A9A9A9;stroke-width:0.5;" x1="5" x2="2602.5" y1="474.3469" y2="474.3469"/><line style="stroke:#A9A9A9;stroke-width:0.5;" x1="5" x2="2602.5" y1="477.3469" y2="477.3469"/><rect fill="#F5F5F5" height="37.9641" style="stroke:#A9A9A9;stroke-width:1.0;" width="374" x="1116.75" y="456.3648"/><text fill="#000000" font-family="Verdana" font-size="22" font-weight="bold" lengthAdjust="spacing" textLength="354" x="1122.75" y="483.8829">Aggregate Statistics Calculation</text><polygon fill="#000000" points="1081,536.293,1091,540.293,1081,544.293,1085,540.293" style="stroke:#000000;stroke-width:1.0;"/><line style="stroke:#000000;stroke-width:2.0;" x1="763" x2="1087" y1="540.293" y2="540.293"/><text fill="#000000" font-family="Verdana" font-size="22" lengthAdjust="spacing" textLength="306" x="775" y="531.847">Calculate aggregate statistics</text><path d="M947,555.293 L1041,555.293 L1041,577.2571 L1031,587.2571 L947,587.2571 L947,555.293 " fill="#FFFFFF" style="stroke:#000000;stroke-width:1.0;"/><rect fill="none" height="388.7128" style="stroke:#000000;stroke-width:1.0;" width="463" x="947" y="555.293"/><text fill="#000000" font-family="Verdana" font-size="22" font-weight="bold" lengthAdjust="spacing" textLength="49" x="962" y="579.8111">loop</text><text fill="#000000" font-family="Verdana" font-size="22" font-weight="bold" lengthAdjust="spacing" textLength="254" x="1056" y="580.8111">[for each transmission]</text><line style="stroke:#000000;stroke-width:2.0;" x1="1093" x2="1135" y1="638.1853" y2="638.1853"/><line style="stroke:#000000;stroke-width:2.0;" x1="1135" x2="1135" y1="638.1853" y2="651.1853"/><line style="stroke:#000000;stroke-width:2.0;" x1="1094" x2="1135" y1="651.1853" y2="651.1853"/><polygon fill="#000000" points="1104,647.1853,1094,651.1853,1104,655.1853,1100,651.1853" style="stroke:#000000;stroke-width:1.0;"/><text fill="#000000" font-family="Verdana" font-size="22" lengthAdjust="spacing" textLength="196" x="1100" y="629.7393">Count connections</text><line style="stroke:#000000;stroke-width:2.0;" x1="1093" x2="1135" y1="695.1494" y2="695.1494"/><line style="stroke:#000000;stroke-width:2.0;" x1="1135" x2="1135" y1="695.1494" y2="708.1494"/><line style="stroke:#000000;stroke-width:2.0;" x1="1094" x2="1135" y1="708.1494" y2="708.1494"/><polygon fill="#000000" points="1104,704.1494,1094,708.1494,1104,712.1494,1100,708.1494" style="stroke:#000000;stroke-width:1.0;"/><text fill="#000000" font-family="Verdana" font-size="22" lengthAdjust="spacing" textLength="290" x="1100" y="686.7034">Calculate transmission time</text><line style="stroke:#000000;stroke-width:2.0;" x1="1093" x2="1135" y1="752.1135" y2="752.1135"/><line style="stroke:#000000;stroke-width:2.0;" x1="1135" x2="1135" y1="752.1135" y2="765.1135"/><line style="stroke:#000000;stroke-width:2.0;" x1="1094" x2="1135" y1="765.1135" y2="765.1135"/><polygon fill="#000000" points="1104,761.1135,1094,765.1135,1104,769.1135,1100,765.1135" style="stroke:#000000;stroke-width:1.0;"/><text fill="#000000" font-family="Verdana" font-size="22" lengthAdjust="spacing" textLength="225" x="1100" y="743.6675">Count character pairs</text><line style="stroke:#000000;stroke-width:2.0;" x1="1093" x2="1135" y1="809.0776" y2="809.0776"/><line style="stroke:#000000;stroke-width:2.0;" x1="1135" x2="1135" y1="809.0776" y2="822.0776"/><line style="stroke:#000000;stroke-width:2.0;" x1="1094" x2="1135" y1="822.0776" y2="822.0776"/><polygon fill="#000000" points="1104,818.0776,1094,822.0776,1104,826.0776,1100,822.0776" style="stroke:#000000;stroke-width:1.0;"/><text fill="#000000" font-family="Verdana" font-size="22" lengthAdjust="spacing" textLength="193" x="1100" y="800.6316">Calculate total bits</text><line style="stroke:#000000;stroke-width:2.0;" x1="1093" x2="1135" y1="866.0417" y2="866.0417"/><line style="stroke:#000000;stroke-width:2.0;" x1="1135" x2="1135" y1="866.0417" y2="879.0417"/><line style="stroke:#000000;stroke-width:2.0;" x1="1094" x2="1135" y1="879.0417" y2="879.0417"/><polygon fill="#000000" points="1104,875.0417,1094,879.0417,1104,883.0417,1100,879.0417" style="stroke:#000000;stroke-width:1.0;"/><text fill="#000000" font-family="Verdana" font-size="22" lengthAdjust="spacing" textLength="194" x="1100" y="857.5957">Calculate data rate</text><line style="stroke:#000000;stroke-width:2.0;" x1="1093" x2="1135" y1="923.0058" y2="923.0058"/><line style="stroke:#000000;stroke-width:2.0;" x1="1135" x2="1135" y1="923.0058" y2="936.0058"/><line style="stroke:#000000;stroke-width:2.0;" x1="1094" x2="1135" y1="936.0058" y2="936.0058"/><polygon fill="#000000" points="1104,932.0058,1094,936.0058,1104,940.0058,1100,936.0058" style="stroke:#000000;stroke-width:1.0;"/><text fill="#000000" font-family="Verdana" font-size="22" lengthAdjust="spacing" textLength="298" x="1100" y="914.5598">Calculate overt message size</text><polygon fill="#000000" points="774,982.9699,764,986.9699,774,990.9699,770,986.9699" style="stroke:#000000;stroke-width:1.0;"/><line style="stroke:#000000;stroke-width:2.0;stroke-dasharray:2.0,2.0;" x1="768" x2="1092" y1="986.9699" y2="986.9699"/><text fill="#000000" font-family="Verdana" font-size="22" lengthAdjust="spacing" textLength="270" x="793" y="978.5239">Return aggregated values</text><rect fill="#F5F5F5" height="3" style="stroke:#F5F5F5;stroke-width:1.0;" width="2597.5" x="5" y="1022.952"/><line style="stroke:#A9A9A9;stroke-width:0.5;" x1="5" x2="2602.5" y1="1022.952" y2="1022.952"/><line style="stroke:#A9A9A9;stroke-width:0.5;" x1="5" x2="2602.5" y1="1025.952" y2="1025.952"/><rect fill="#F5F5F5" height="37.9641" style="stroke:#A9A9A9;stroke-width:1.0;" width="228" x="1189.75" y="1004.9699"/><text fill="#000000" font-family="Verdana" font-size="22" font-weight="bold" lengthAdjust="spacing" textLength="208" x="1195.75" y="1032.488">Statistical Analysis</text><polygon fill="#000000" points="1393,1084.8981,1403,1088.8981,1393,1092.8981,1397,1088.8981" style="stroke:#000000;stroke-width:1.0;"/><line style="stroke:#000000;stroke-width:2.0;" x1="763" x2="1399" y1="1088.8981" y2="1088.8981"/><text fill="#000000" font-family="Verdana" font-size="22" lengthAdjust="spacing" textLength="279" x="944.5" y="1080.4521">Perform statistical analysis</text><line style="stroke:#000000;stroke-width:2.0;" x1="1405" x2="1447" y1="1132.8622" y2="1132.8622"/><line style="stroke:#000000;stroke-width:2.0;" x1="1447" x2="1447" y1="1132.8622" y2="1145.8622"/><line style="stroke:#000000;stroke-width:2.0;" x1="1406" x2="1447" y1="1145.8622" y2="1145.8622"/><polygon fill="#000000" points="1416,1141.8622,1406,1145.8622,1416,1149.8622,1412,1145.8622" style="stroke:#000000;stroke-width:1.0;"/><text fill="#000000" font-family="Verdana" font-size="22" lengthAdjust="spacing" textLength="388" x="1412" y="1124.4162">Calculate transmission time statistics</text><line style="stroke:#000000;stroke-width:2.0;" x1="1405" x2="1447" y1="1189.8263" y2="1189.8263"/><line style="stroke:#000000;stroke-width:2.0;" x1="1447" x2="1447" y1="1189.8263" y2="1202.8263"/><line style="stroke:#000000;stroke-width:2.0;" x1="1406" x2="1447" y1="1202.8263" y2="1202.8263"/><polygon fill="#000000" points="1416,1198.8263,1406,1202.8263,1416,1206.8263,1412,1202.8263" style="stroke:#000000;stroke-width:1.0;"/><text fill="#000000" font-family="Verdana" font-size="22" lengthAdjust="spacing" textLength="380" x="1412" y="1181.3803">Calculate transmission size statistics</text><line style="stroke:#000000;stroke-width:2.0;" x1="1405" x2="1447" y1="1246.7904" y2="1246.7904"/><line style="stroke:#000000;stroke-width:2.0;" x1="1447" x2="1447" y1="1246.7904" y2="1259.7904"/><line style="stroke:#000000;stroke-width:2.0;" x1="1406" x2="1447" y1="1259.7904" y2="1259.7904"/><polygon fill="#000000" points="1416,1255.7904,1406,1259.7904,1416,1263.7904,1412,1259.7904" style="stroke:#000000;stroke-width:1.0;"/><text fill="#000000" font-family="Verdana" font-size="22" lengthAdjust="spacing" textLength="292" x="1412" y="1238.3444">Calculate data rate statistics</text><line style="stroke:#000000;stroke-width:2.0;" x1="1405" x2="1447" y1="1303.7546" y2="1303.7546"/><line style="stroke:#000000;stroke-width:2.0;" x1="1447" x2="1447" y1="1303.7546" y2="1316.7546"/><line style="stroke:#000000;stroke-width:2.0;" x1="1406" x2="1447" y1="1316.7546" y2="1316.7546"/><polygon fill="#000000" points="1416,1312.7546,1406,1316.7546,1416,1320.7546,1412,1316.7546" style="stroke:#000000;stroke-width:1.0;"/><text fill="#000000" font-family="Verdana" font-size="22" lengthAdjust="spacing" textLength="326" x="1412" y="1295.3085">Calculate connections statistics</text><line style="stroke:#000000;stroke-width:2.0;" x1="1405" x2="1447" y1="1360.7187" y2="1360.7187"/><line style="stroke:#000000;stroke-width:2.0;" x1="1447" x2="1447" y1="1360.7187" y2="1373.7187"/><line style="stroke:#000000;stroke-width:2.0;" x1="1406" x2="1447" y1="1373.7187" y2="1373.7187"/><polygon fill="#000000" points="1416,1369.7187,1406,1373.7187,1416,1377.7187,1412,1373.7187" style="stroke:#000000;stroke-width:1.0;"/><text fill="#000000" font-family="Verdana" font-size="22" lengthAdjust="spacing" textLength="396" x="1412" y="1352.2726">Calculate overt message size statistics</text><polygon fill="#000000" points="774,1413.6828,764,1417.6828,774,1421.6828,770,1417.6828" style="stroke:#000000;stroke-width:1.0;"/><line style="stroke:#000000;stroke-width:2.0;stroke-dasharray:2.0,2.0;" x1="768" x2="1404" y1="1417.6828" y2="1417.6828"/><text fill="#000000" font-family="Verdana" font-size="22" lengthAdjust="spacing" textLength="248" x="960" y="1409.2367">Return statistical values</text><polygon fill="#000000" points="2330,1457.6469,2340,1461.6469,2330,1465.6469,2334,1461.6469" style="stroke:#000000;stroke-width:1.0;"/><line style="stroke:#000000;stroke-width:2.0;" x1="763" x2="2336" y1="1461.6469" y2="1461.6469"/><text fill="#000000" font-family="Verdana" font-size="22" lengthAdjust="spacing" textLength="266" x="1419.5" y="1453.2008">Write aggregate statistics</text><polygon fill="#000000" points="2330,1501.611,2340,1505.611,2330,1509.611,2334,1505.611" style="stroke:#000000;stroke-width:1.0;"/><line style="stroke:#000000;stroke-width:2.0;" x1="763" x2="2336" y1="1505.611" y2="1505.611"/><text fill="#000000" font-family="Verdana" font-size="22" lengthAdjust="spacing" textLength="249" x="1428" y="1497.1649">Write statistical analysis</text><rect fill="#F5F5F5" height="3" style="stroke:#F5F5F5;stroke-width:1.0;" width="2597.5" x="5" y="1541.593"/><line style="stroke:#A9A9A9;stroke-width:0.5;" x1="5" x2="2602.5" y1="1541.593" y2="1541.593"/><line style="stroke:#A9A9A9;stroke-width:0.5;" x1="5" x2="2602.5" y1="1544.593" y2="1544.593"/><rect fill="#F5F5F5" height="37.9641" style="stroke:#A9A9A9;stroke-width:1.0;" width="391" x="1108.25" y="1523.611"/><text fill="#000000" font-family="Verdana" font-size="22" font-weight="bold" lengthAdjust="spacing" textLength="371" x="1114.25" y="1551.129">Detailed Transmission Processing</text><path d="M619,1578.5751 L713,1578.5751 L713,1600.5392 L703,1610.5392 L619,1610.5392 L619,1578.5751 " fill="#FFFFFF" style="stroke:#000000;stroke-width:1.0;"/><rect fill="none" height="502.5333" style="stroke:#000000;stroke-width:1.0;" width="1827.5" x="619" y="1578.5751"/><text fill="#000000" font-family="Verdana" font-size="22" font-weight="bold" lengthAdjust="spacing" textLength="49" x="634" y="1603.0931">loop</text><text fill="#000000" font-family="Verdana" font-size="22" font-weight="bold" lengthAdjust="spacing" textLength="254" x="728" y="1604.0931">[for each transmission]</text><polygon fill="#000000" points="1803,1657.4674,1813,1661.4674,1803,1665.4674,1807,1661.4674" style="stroke:#000000;stroke-width:1.0;"/><line style="stroke:#000000;stroke-width:2.0;" x1="763" x2="1809" y1="1661.4674" y2="1661.4674"/><text fill="#000000" font-family="Verdana" font-size="22" lengthAdjust="spacing" textLength="297" x="1140.5" y="1653.0213">Process transmission details</text><line style="stroke:#000000;stroke-width:2.0;" x1="1815" x2="1857" y1="1705.4315" y2="1705.4315"/><line style="stroke:#000000;stroke-width:2.0;" x1="1857" x2="1857" y1="1705.4315" y2="1718.4315"/><line style="stroke:#000000;stroke-width:2.0;" x1="1816" x2="1857" y1="1718.4315" y2="1718.4315"/><polygon fill="#000000" points="1826,1714.4315,1816,1718.4315,1826,1722.4315,1822,1718.4315" style="stroke:#000000;stroke-width:1.0;"/><text fill="#000000" font-family="Verdana" font-size="22" lengthAdjust="spacing" textLength="321" x="1822" y="1696.9854">Calculate transmission metrics</text><line style="stroke:#000000;stroke-width:2.0;" x1="1815" x2="1857" y1="1762.3956" y2="1762.3956"/><line style="stroke:#000000;stroke-width:2.0;" x1="1857" x2="1857" y1="1762.3956" y2="1775.3956"/><line style="stroke:#000000;stroke-width:2.0;" x1="1816" x2="1857" y1="1775.3956" y2="1775.3956"/><polygon fill="#000000" points="1826,1771.3956,1816,1775.3956,1826,1779.3956,1822,1775.3956" style="stroke:#000000;stroke-width:1.0;"/><text fill="#000000" font-family="Verdana" font-size="22" lengthAdjust="spacing" textLength="247" x="1822" y="1753.9495">Decode covert message</text><polygon fill="#000000" points="774,1815.3597,764,1819.3597,774,1823.3597,770,1819.3597" style="stroke:#000000;stroke-width:1.0;"/><line style="stroke:#000000;stroke-width:2.0;stroke-dasharray:2.0,2.0;" x1="768" x2="1814" y1="1819.3597" y2="1819.3597"/><text fill="#000000" font-family="Verdana" font-size="22" lengthAdjust="spacing" textLength="259" x="1159.5" y="1810.9136">Return processed details</text><polygon fill="#000000" points="2330,1859.3238,2340,1863.3238,2330,1867.3238,2334,1863.3238" style="stroke:#000000;stroke-width:1.0;"/><line style="stroke:#000000;stroke-width:2.0;" x1="763" x2="2336" y1="1863.3238" y2="1863.3238"/><text fill="#000000" font-family="Verdana" font-size="22" lengthAdjust="spacing" textLength="302" x="1401.5" y="1854.8778">Write transmission summary</text><polygon fill="#000000" points="2330,1903.2879,2340,1907.2879,2330,1911.2879,2334,1907.2879" style="stroke:#000000;stroke-width:1.0;"/><line style="stroke:#000000;stroke-width:2.0;" x1="763" x2="2336" y1="1907.2879" y2="1907.2879"/><text fill="#000000" font-family="Verdana" font-size="22" lengthAdjust="spacing" textLength="250" x="1427.5" y="1898.8419">Write decoded message</text><path d="M629,1922.2879 L704,1922.2879 L704,1944.252 L694,1954.252 L629,1954.252 L629,1922.2879 " fill="#FFFFFF" style="stroke:#000000;stroke-width:1.0;"/><rect fill="none" height="151.8205" style="stroke:#000000;stroke-width:1.0;" width="1807.5" x="629" y="1922.2879"/><text fill="#000000" font-family="Verdana" font-size="22" font-weight="bold" lengthAdjust="spacing" textLength="30" x="644" y="1946.806">alt</text><text fill="#000000" font-family="Verdana" font-size="22" font-weight="bold" lengthAdjust="spacing" textLength="269" x="719" y="1947.806">[show_details flag is set]</text><path d="M639,1976.2161 L733,1976.2161 L733,1998.1802 L723,2008.1802 L639,2008.1802 L639,1976.2161 " fill="#FFFFFF" style="stroke:#000000;stroke-width:1.0;"/><rect fill="none" height="90.8923" style="stroke:#000000;stroke-width:1.0;" width="1787.5" x="639" y="1976.2161"/><text fill="#000000" font-family="Verdana" font-size="22" font-weight="bold" lengthAdjust="spacing" textLength="49" x="654" y="2000.7342">loop</text><text fill="#000000" font-family="Verdana" font-size="22" font-weight="bold" lengthAdjust="spacing" textLength="235" x="748" y="2001.7342">[for each packet pair]</text><polygon fill="#000000" points="2330,2055.1084,2340,2059.1084,2330,2063.1084,2334,2059.1084" style="stroke:#000000;stroke-width:1.0;"/><line style="stroke:#000000;stroke-width:2.0;" x1="763" x2="2336" y1="2059.1084" y2="2059.1084"/><text fill="#000000" font-family="Verdana" font-size="22" lengthAdjust="spacing" textLength="350" x="1377.5" y="2050.6624">Write detailed packet information</text><rect fill="#F5F5F5" height="3" style="stroke:#F5F5F5;stroke-width:1.0;" width="2597.5" x="5" y="2116.0904"/><line style="stroke:#A9A9A9;stroke-width:0.5;" x1="5" x2="2602.5" y1="2116.0904" y2="2116.0904"/><line style="stroke:#A9A9A9;stroke-width:0.5;" x1="5" x2="2602.5" y1="2119.0904" y2="2119.0904"/><rect fill="#F5F5F5" height="37.9641" style="stroke:#A9A9A9;stroke-width:1.0;" width="182" x="1212.75" y="2098.1084"/><text fill="#000000" font-family="Verdana" font-size="22" font-weight="bold" lengthAdjust="spacing" textLength="162" x="1218.75" y="2125.6265">Metrics Export</text><line style="stroke:#000000;stroke-width:2.0;" x1="763" x2="805" y1="2182.0366" y2="2182.0366"/><line style="stroke:#000000;stroke-width:2.0;" x1="805" x2="805" y1="2182.0366" y2="2195.0366"/><line style="stroke:#000000;stroke-width:2.0;" x1="764" x2="805" y1="2195.0366" y2="2195.0366"/><polygon fill="#000000" points="774,2191.0366,764,2195.0366,774,2199.0366,770,2195.0366" style="stroke:#000000;stroke-width:1.0;"/><text fill="#000000" font-family="Verdana" font-size="22" lengthAdjust="spacing" textLength="293" x="770" y="2173.5906">Prepare metrics JSON object</text><polygon fill="#000000" points="2138,2235.0007,2148,2239.0007,2138,2243.0007,2142,2239.0007" style="stroke:#000000;stroke-width:1.0;"/><line style="stroke:#000000;stroke-width:2.0;" x1="763" x2="2144" y1="2239.0007" y2="2239.0007"/><text fill="#000000" font-family="Verdana" font-size="22" lengthAdjust="spacing" textLength="275" x="1319" y="2230.5547">Export metrics to JSON file</text><polygon fill="#000000" points="2492.5,2278.9648,2502.5,2282.9648,2492.5,2286.9648,2496.5,2282.9648" style="stroke:#000000;stroke-width:1.0;"/><line style="stroke:#000000;stroke-width:2.0;" x1="2150" x2="2498.5" y1="2282.9648" y2="2282.9648"/><text fill="#000000" font-family="Verdana" font-size="22" lengthAdjust="spacing" textLength="197" x="2228.75" y="2274.5188">Write metrics JSON</text><polygon fill="#000000" points="774,2322.9289,764,2326.9289,774,2330.9289,770,2326.9289" style="stroke:#000000;stroke-width:1.0;"/><line style="stroke:#000000;stroke-width:2.0;stroke-dasharray:2.0,2.0;" x1="768" x2="2149" y1="2326.9289" y2="2326.9289"/><text fill="#000000" font-family="Verdana" font-size="22" lengthAdjust="spacing" textLength="247" x="1333" y="2318.4829">Return metrics file path</text><polygon fill="#000000" points="2330,2366.893,2340,2370.893,2330,2374.893,2334,2370.893" style="stroke:#000000;stroke-width:1.0;"/><line style="stroke:#000000;stroke-width:2.0;" x1="763" x2="2336" y1="2370.893" y2="2370.893"/><text fill="#000000" font-family="Verdana" font-size="22" lengthAdjust="spacing" textLength="148" x="1478.5" y="2362.447">Finalize report</text><polygon fill="#000000" points="115,2410.8571,105,2414.8571,115,2418.8571,111,2414.8571" style="stroke:#000000;stroke-width:1.0;"/><line style="stroke:#000000;stroke-width:2.0;stroke-dasharray:2.0,2.0;" x1="109" x2="762" y1="2414.8571" y2="2414.8571"/><text fill="#000000" font-family="Verdana" font-size="22" lengthAdjust="spacing" textLength="379" x="244" y="2406.4111">Return (report generation complete)</text><!--SRC=[dLPDJnin4BtlhvXoAKY40-ef4fLeA9IgKDGWSKJ3xh3hncjlRGT8Vtt7-sad6qZ98TfTl_SyddaU-uChg2Ie90gLs8LG5HeimTAV9QcKJetHpxU5I1UAh8NZ4SYPU18PcI-OBdAZbogRQQaDt1N2qRpK2tg5emt_D_WpD8iBWwi0pVzEfA92vSwrSdEtaWGFMcOZYbSS7kPqAaMk82Nbo2J9HxXKgI6q18yi05Ry9HkGCth4fMp4UGYEm_KvuIGDGvz6XuQGaleZtFwOmqnK1Pd9VCaPc7pJLILK3ZFzHCR1h42bIC84Vb6b-SC5AJBeE0FpTYb94YmSzagj10yVLQizG0jNpMkCoHiHkZUrwFv13UsbO_1fdXlA6Pt1tA4JbeTiJU0H_yN6-1w44auLofKL3TmFT1zYogr1PKjXhT0ARenEkJgSX9fLZ_blCOLUVEJt9Jd3uRGhk6hUljPZCRv9txcGL2E7rnZMAlIuu3r9JaxMgX242oSdIT8c6oQVXsHEOOPImdhACtHuxrOL7KAgfQJKYzb3zaf9rc5PyJEvzEWWIL0wkDRWWYHPDYXldGJuDpXYmlEs8KmvKhSq2lQLXcRAFeJi82797h-D1Ec5YxOk6AtZafK5Ic_lLl7HfsM3CkHs2dU6JTt12yBCxpFFu5psnWfyvPELBcMJMawfXsxEq1blsiC9i5UplTf0brfNd3C3X6aHfR8UzhzET6q2phFZ4l4kR4hq5huFA9oaBkjkCnNSCb9kHzpEXFcFsRJZ_VOWtEuKRq7mXjYPqVIaikcTTNkigTGwCOarOlUqViIXcpoXN59G8xR4ME_OReEmeKpXXWmNk1pApnhOjHlF3U6Rz5SAj-weTmdvRBrNgA_KUmK2_xvNOhFshokDLZ-ipNhvt-WXM_Vt6xojTkWyTqOE6P_1bbCeyjyEVIIAfp-zflr14RaYgoSVzcoFNoDlCLLx_Br9FwDKPzu6OH77MADLgvh8EKNhuOulUhC8yKvObYMQrQxSh8uzsuYwV_3deotqytqR7JnAp84zQCdreCtYLNm39LUtsGYrKqYjPLeDeNpdgG-jIAfhZE5pr2pPVkqD0vfBo_Pc5vJbXizJDDHL7xxFVrw3VlZDEtoJ5zs9fjqq7TNfXjsVv14yu8VB3-ST8usQg2FvcJXlhjXXvvyB5TutThdkn7STRxTKbvKaHtphuTJ_0m00]--></g></svg>