<?xml version="1.0" encoding="us-ascii" standalone="no"?><svg xmlns="http://www.w3.org/2000/svg" xmlns:xlink="http://www.w3.org/1999/xlink" contentStyleType="text/css" height="3751px" preserveAspectRatio="none" style="width:3545px;height:3751px;background:#FFFFFF;" version="1.1" viewBox="0 0 3545 3751" width="3545px" zoomAndPan="magnify"><defs/><g><text fill="#000000" font-family="Verdana" font-size="24" font-weight="bold" lengthAdjust="spacing" textLength="793" x="1374.5" y="40.6559">TLS Cipher-Suite-Hopping Covert Channel - Transmission Sequence</text><rect fill="#FFFFFF" height="2833.6666" style="stroke:#000000;stroke-width:1.0;" width="2511.5" x="1016.5" y="603.3289"/><rect fill="#FFFFFF" height="281.7487" style="stroke:#000000;stroke-width:1.0;" width="492" x="1026.5" y="657.2571"/><rect fill="#FFFFFF" height="88.9282" style="stroke:none;stroke-width:1.0;" width="492" x="1026.5" y="761.1494"/><rect fill="#FFFFFF" height="88.9282" style="stroke:none;stroke-width:1.0;" width="492" x="1026.5" y="850.0776"/><rect fill="#FFFFFF" height="574.4974" style="stroke:#000000;stroke-width:1.0;" width="1839" x="1679" y="2226.0007"/><line style="stroke:#000000;stroke-width:1.0;" x1="37" x2="37" y1="149.652" y2="3656.8519"/><line style="stroke:#000000;stroke-width:1.0;" x1="351" x2="351" y1="149.652" y2="3656.8519"/><line style="stroke:#000000;stroke-width:1.0;" x1="639.5" x2="639.5" y1="149.652" y2="3656.8519"/><line style="stroke:#000000;stroke-width:1.0;" x1="897.5" x2="897.5" y1="149.652" y2="3656.8519"/><line style="stroke:#000000;stroke-width:1.0;" x1="1188.5" x2="1188.5" y1="149.652" y2="3656.8519"/><line style="stroke:#000000;stroke-width:1.0;" x1="1591" x2="1591" y1="149.652" y2="3656.8519"/><line style="stroke:#000000;stroke-width:1.0;" x1="1843" x2="1843" y1="149.652" y2="3656.8519"/><line style="stroke:#000000;stroke-width:1.0;" x1="2309.5" x2="2309.5" y1="149.652" y2="3656.8519"/><line style="stroke:#000000;stroke-width:1.0;" x1="2786" x2="2786" y1="149.652" y2="3656.8519"/><line style="stroke:#000000;stroke-width:1.0;" x1="3125" x2="3125" y1="149.652" y2="3656.8519"/><line style="stroke:#000000;stroke-width:1.0;" x1="3394" x2="3394" y1="149.652" y2="3656.8519"/><text fill="#000000" font-family="Verdana" font-size="22" lengthAdjust="spacing" textLength="48" x="10" y="143.206">User</text><ellipse cx="37" cy="67.6879" fill="#FFFFFF" rx="8" ry="8" style="stroke:#000000;stroke-width:1.0;"/><path d="M37,75.6879 L37,102.6879 M24,83.6879 L50,83.6879 M37,102.6879 L24,117.6879 M37,102.6879 L50,117.6879 " fill="none" style="stroke:#000000;stroke-width:1.0;"/><text fill="#000000" font-family="Verdana" font-size="22" lengthAdjust="spacing" textLength="48" x="10" y="3679.37">User</text><ellipse cx="37" cy="3694.816" fill="#FFFFFF" rx="8" ry="8" style="stroke:#000000;stroke-width:1.0;"/><path d="M37,3702.816 L37,3729.816 M24,3710.816 L50,3710.816 M37,3729.816 L24,3744.816 M37,3729.816 L50,3744.816 " fill="none" style="stroke:#000000;stroke-width:1.0;"/><rect fill="#FFFFFF" height="43.9641" rx="2.5" ry="2.5" style="stroke:#000000;stroke-width:1.0;" width="84" x="309" y="104.6879"/><text fill="#000000" font-family="Verdana" font-size="22" font-weight="bold" lengthAdjust="spacing" textLength="70" x="316" y="135.206">main()</text><rect fill="#FFFFFF" height="43.9641" rx="2.5" ry="2.5" style="stroke:#000000;stroke-width:1.0;" width="84" x="309" y="3655.8519"/><text fill="#000000" font-family="Verdana" font-size="22" font-weight="bold" lengthAdjust="spacing" textLength="70" x="316" y="3686.37">main()</text><rect fill="#FFFFFF" height="43.9641" rx="2.5" ry="2.5" style="stroke:#000000;stroke-width:1.0;" width="219" x="530.5" y="104.6879"/><text fill="#000000" font-family="Verdana" font-size="22" font-weight="bold" lengthAdjust="spacing" textLength="205" x="537.5" y="135.206">parse_arguments()</text><rect fill="#FFFFFF" height="43.9641" rx="2.5" ry="2.5" style="stroke:#000000;stroke-width:1.0;" width="219" x="530.5" y="3655.8519"/><text fill="#000000" font-family="Verdana" font-size="22" font-weight="bold" lengthAdjust="spacing" textLength="205" x="537.5" y="3686.37">parse_arguments()</text><rect fill="#FFFFFF" height="43.9641" rx="2.5" ry="2.5" style="stroke:#000000;stroke-width:1.0;" width="237" x="779.5" y="104.6879"/><text fill="#000000" font-family="Verdana" font-size="22" font-weight="bold" lengthAdjust="spacing" textLength="223" x="786.5" y="135.206">load_permutations()</text><rect fill="#FFFFFF" height="43.9641" rx="2.5" ry="2.5" style="stroke:#000000;stroke-width:1.0;" width="237" x="779.5" y="3655.8519"/><text fill="#000000" font-family="Verdana" font-size="22" font-weight="bold" lengthAdjust="spacing" textLength="223" x="786.5" y="3686.37">load_permutations()</text><rect fill="#FFFFFF" height="43.9641" rx="2.5" ry="2.5" style="stroke:#000000;stroke-width:1.0;" width="284" x="1046.5" y="104.6879"/><text fill="#000000" font-family="Verdana" font-size="22" font-weight="bold" lengthAdjust="spacing" textLength="270" x="1053.5" y="135.206">generate_and_transmit()</text><rect fill="#FFFFFF" height="43.9641" rx="2.5" ry="2.5" style="stroke:#000000;stroke-width:1.0;" width="284" x="1046.5" y="3655.8519"/><text fill="#000000" font-family="Verdana" font-size="22" font-weight="bold" lengthAdjust="spacing" textLength="270" x="1053.5" y="3686.37">generate_and_transmit()</text><rect fill="#FFFFFF" height="43.9641" rx="2.5" ry="2.5" style="stroke:#000000;stroke-width:1.0;" width="155" x="1514" y="104.6879"/><text fill="#000000" font-family="Verdana" font-size="22" font-weight="bold" lengthAdjust="spacing" textLength="141" x="1521" y="135.206">send_signal()</text><rect fill="#FFFFFF" height="43.9641" rx="2.5" ry="2.5" style="stroke:#000000;stroke-width:1.0;" width="155" x="1514" y="3655.8519"/><text fill="#000000" font-family="Verdana" font-size="22" font-weight="bold" lengthAdjust="spacing" textLength="141" x="1521" y="3686.37">send_signal()</text><rect fill="#FFFFFF" height="43.9641" rx="2.5" ry="2.5" style="stroke:#000000;stroke-width:1.0;" width="289" x="1699" y="104.6879"/><text fill="#000000" font-family="Verdana" font-size="22" font-weight="bold" lengthAdjust="spacing" textLength="275" x="1706" y="135.206">send_key_over_tls_pairs()</text><rect fill="#FFFFFF" height="43.9641" rx="2.5" ry="2.5" style="stroke:#000000;stroke-width:1.0;" width="289" x="1699" y="3655.8519"/><text fill="#000000" font-family="Verdana" font-size="22" font-weight="bold" lengthAdjust="spacing" textLength="275" x="1706" y="3686.37">send_key_over_tls_pairs()</text><rect fill="#FFFFFF" height="43.9641" rx="2.5" ry="2.5" style="stroke:#000000;stroke-width:1.0;" width="340" x="2139.5" y="104.6879"/><text fill="#000000" font-family="Verdana" font-size="22" font-weight="bold" lengthAdjust="spacing" textLength="326" x="2146.5" y="135.206">tls_connection_for_ascii_pair()</text><rect fill="#FFFFFF" height="43.9641" rx="2.5" ry="2.5" style="stroke:#000000;stroke-width:1.0;" width="340" x="2139.5" y="3655.8519"/><text fill="#000000" font-family="Verdana" font-size="22" font-weight="bold" lengthAdjust="spacing" textLength="326" x="2146.5" y="3686.37">tls_connection_for_ascii_pair()</text><rect fill="#FFFFFF" height="43.9641" rx="2.5" ry="2.5" style="stroke:#000000;stroke-width:1.0;" width="351" x="2611" y="104.6879"/><text fill="#000000" font-family="Verdana" font-size="22" font-weight="bold" lengthAdjust="spacing" textLength="337" x="2618" y="135.206">get_cipher_lists_for_ascii_pair()</text><rect fill="#FFFFFF" height="43.9641" rx="2.5" ry="2.5" style="stroke:#000000;stroke-width:1.0;" width="351" x="2611" y="3655.8519"/><text fill="#000000" font-family="Verdana" font-size="22" font-weight="bold" lengthAdjust="spacing" textLength="337" x="2618" y="3686.37">get_cipher_lists_for_ascii_pair()</text><rect fill="#FFFFFF" height="43.9641" rx="2.5" ry="2.5" style="stroke:#000000;stroke-width:1.0;" width="266" x="2992" y="104.6879"/><text fill="#000000" font-family="Verdana" font-size="22" font-weight="bold" lengthAdjust="spacing" textLength="252" x="2999" y="135.206">create_tls_connection()</text><rect fill="#FFFFFF" height="43.9641" rx="2.5" ry="2.5" style="stroke:#000000;stroke-width:1.0;" width="266" x="2992" y="3655.8519"/><text fill="#000000" font-family="Verdana" font-size="22" font-weight="bold" lengthAdjust="spacing" textLength="252" x="2999" y="3686.37">create_tls_connection()</text><rect fill="#FFFFFF" height="73.9282" rx="2.5" ry="2.5" style="stroke:#000000;stroke-width:1.0;" width="208" x="3290" y="74.7238"/><text fill="#000000" font-family="Verdana" font-size="22" font-weight="bold" lengthAdjust="spacing" textLength="164" x="3312" y="105.2419">Remote Server</text><text fill="#000000" font-family="Verdana" font-size="22" font-weight="bold" lengthAdjust="spacing" textLength="194" x="3297" y="135.206">(192.168.0.20:443)</text><rect fill="#FFFFFF" height="73.9282" rx="2.5" ry="2.5" style="stroke:#000000;stroke-width:1.0;" width="208" x="3290" y="3655.8519"/><text fill="#000000" font-family="Verdana" font-size="22" font-weight="bold" lengthAdjust="spacing" textLength="164" x="3312" y="3686.37">Remote Server</text><text fill="#000000" font-family="Verdana" font-size="22" font-weight="bold" lengthAdjust="spacing" textLength="194" x="3297" y="3716.3341">(192.168.0.20:443)</text><rect fill="#F5F5F5" height="3" style="stroke:#F5F5F5;stroke-width:1.0;" width="3533" x="5" y="187.6341"/><line style="stroke:#A9A9A9;stroke-width:0.5;" x1="5" x2="3538" y1="187.6341" y2="187.6341"/><line style="stroke:#A9A9A9;stroke-width:0.5;" x1="5" x2="3538" y1="190.6341" y2="190.6341"/><rect fill="#F5F5F5" height="37.9641" style="stroke:#A9A9A9;stroke-width:1.0;" width="163" x="1690" y="169.652"/><text fill="#000000" font-family="Verdana" font-size="22" font-weight="bold" lengthAdjust="spacing" textLength="143" x="1696" y="197.1701">Initialization</text><polygon fill="#000000" points="339,249.5802,349,253.5802,339,257.5802,343,253.5802" style="stroke:#000000;stroke-width:1.0;"/><line style="stroke:#000000;stroke-width:2.0;" x1="37" x2="345" y1="253.5802" y2="253.5802"/><text fill="#000000" font-family="Verdana" font-size="22" lengthAdjust="spacing" textLength="210" x="89" y="245.1342">Run script with args</text><polygon fill="#000000" points="628,293.5443,638,297.5443,628,301.5443,632,297.5443" style="stroke:#000000;stroke-width:1.0;"/><line style="stroke:#000000;stroke-width:2.0;" x1="351" x2="634" y1="297.5443" y2="297.5443"/><text fill="#000000" font-family="Verdana" font-size="22" lengthAdjust="spacing" textLength="265" x="363" y="289.0983">Parse command line args</text><polygon fill="#000000" points="362,337.5084,352,341.5084,362,345.5084,358,341.5084" style="stroke:#000000;stroke-width:1.0;"/><line style="stroke:#000000;stroke-width:2.0;stroke-dasharray:2.0,2.0;" x1="356" x2="639" y1="341.5084" y2="341.5084"/><text fill="#000000" font-family="Verdana" font-size="22" lengthAdjust="spacing" textLength="201" x="395" y="333.0624">Return parsed args</text><polygon fill="#000000" points="886,381.4725,896,385.4725,886,389.4725,890,385.4725" style="stroke:#000000;stroke-width:1.0;"/><line style="stroke:#000000;stroke-width:2.0;" x1="351" x2="892" y1="385.4725" y2="385.4725"/><text fill="#000000" font-family="Verdana" font-size="22" lengthAdjust="spacing" textLength="199" x="525" y="377.0265">Load permutations</text><line style="stroke:#000000;stroke-width:2.0;" x1="898" x2="940" y1="429.4366" y2="429.4366"/><line style="stroke:#000000;stroke-width:2.0;" x1="940" x2="940" y1="429.4366" y2="442.4366"/><line style="stroke:#000000;stroke-width:2.0;" x1="899" x2="940" y1="442.4366" y2="442.4366"/><polygon fill="#000000" points="909,438.4366,899,442.4366,909,446.4366,905,442.4366" style="stroke:#000000;stroke-width:1.0;"/><text fill="#000000" font-family="Verdana" font-size="22" lengthAdjust="spacing" textLength="250" x="905" y="420.9906">Read permutations.json</text><polygon fill="#000000" points="362,482.4007,352,486.4007,362,490.4007,358,486.4007" style="stroke:#000000;stroke-width:1.0;"/><line style="stroke:#000000;stroke-width:2.0;stroke-dasharray:2.0,2.0;" x1="356" x2="897" y1="486.4007" y2="486.4007"/><text fill="#000000" font-family="Verdana" font-size="22" lengthAdjust="spacing" textLength="316" x="466.5" y="477.9547">Update ASCII_PAIRS dictionary</text><rect fill="#F5F5F5" height="3" style="stroke:#F5F5F5;stroke-width:1.0;" width="3533" x="5" y="522.3828"/><line style="stroke:#A9A9A9;stroke-width:0.5;" x1="5" x2="3538" y1="522.3828" y2="522.3828"/><line style="stroke:#A9A9A9;stroke-width:0.5;" x1="5" x2="3538" y1="525.3828" y2="525.3828"/><rect fill="#F5F5F5" height="37.9641" style="stroke:#A9A9A9;stroke-width:1.0;" width="402" x="1570.5" y="504.4007"/><text fill="#000000" font-family="Verdana" font-size="22" font-weight="bold" lengthAdjust="spacing" textLength="382" x="1576.5" y="531.9188">Data Generation and Transmission</text><polygon fill="#000000" points="1176.5,584.3289,1186.5,588.3289,1176.5,592.3289,1180.5,588.3289" style="stroke:#000000;stroke-width:1.0;"/><line style="stroke:#000000;stroke-width:2.0;" x1="351" x2="1182.5" y1="588.3289" y2="588.3289"/><text fill="#000000" font-family="Verdana" font-size="22" lengthAdjust="spacing" textLength="429" x="555.25" y="579.8829">generate_and_transmit(data_type, count)</text><path d="M1016.5,603.3289 L1110.5,603.3289 L1110.5,625.293 L1100.5,635.293 L1016.5,635.293 L1016.5,603.3289 " fill="#FFFFFF" style="stroke:#000000;stroke-width:1.0;"/><rect fill="none" height="2833.6666" style="stroke:#000000;stroke-width:1.0;" width="2511.5" x="1016.5" y="603.3289"/><text fill="#000000" font-family="Verdana" font-size="22" font-weight="bold" lengthAdjust="spacing" textLength="49" x="1031.5" y="627.847">loop</text><text fill="#000000" font-family="Verdana" font-size="22" font-weight="bold" lengthAdjust="spacing" textLength="258" x="1125.5" y="628.847">[for each item in count]</text><path d="M1026.5,657.2571 L1101.5,657.2571 L1101.5,679.2212 L1091.5,689.2212 L1026.5,689.2212 L1026.5,657.2571 " fill="#FFFFFF" style="stroke:#000000;stroke-width:1.0;"/><rect fill="none" height="281.7487" style="stroke:#000000;stroke-width:1.0;" width="492" x="1026.5" y="657.2571"/><text fill="#000000" font-family="Verdana" font-size="22" font-weight="bold" lengthAdjust="spacing" textLength="30" x="1041.5" y="681.7752">alt</text><text fill="#000000" font-family="Verdana" font-size="22" font-weight="bold" lengthAdjust="spacing" textLength="287" x="1116.5" y="682.7752">[data_type == "password"]</text><line style="stroke:#000000;stroke-width:2.0;" x1="1188.5" x2="1230.5" y1="740.1494" y2="740.1494"/><line style="stroke:#000000;stroke-width:2.0;" x1="1230.5" x2="1230.5" y1="740.1494" y2="753.1494"/><line style="stroke:#000000;stroke-width:2.0;" x1="1189.5" x2="1230.5" y1="753.1494" y2="753.1494"/><polygon fill="#000000" points="1199.5,749.1494,1189.5,753.1494,1199.5,757.1494,1195.5,753.1494" style="stroke:#000000;stroke-width:1.0;"/><text fill="#000000" font-family="Verdana" font-size="22" lengthAdjust="spacing" textLength="311" x="1195.5" y="731.7034">generate_random_password()</text><line style="stroke:#000000;stroke-width:1.0;stroke-dasharray:2.0,2.0;" x1="1026.5" x2="1518.5" y1="762.1494" y2="762.1494"/><text fill="#000000" font-family="Verdana" font-size="22" font-weight="bold" lengthAdjust="spacing" textLength="215" x="1031.5" y="785.6675">[data_type == "rsa"]</text><line style="stroke:#000000;stroke-width:2.0;" x1="1188.5" x2="1230.5" y1="829.0776" y2="829.0776"/><line style="stroke:#000000;stroke-width:2.0;" x1="1230.5" x2="1230.5" y1="829.0776" y2="842.0776"/><line style="stroke:#000000;stroke-width:2.0;" x1="1189.5" x2="1230.5" y1="842.0776" y2="842.0776"/><polygon fill="#000000" points="1199.5,838.0776,1189.5,842.0776,1199.5,846.0776,1195.5,842.0776" style="stroke:#000000;stroke-width:1.0;"/><text fill="#000000" font-family="Verdana" font-size="22" lengthAdjust="spacing" textLength="182" x="1195.5" y="820.6316">Generate RSA key</text><line style="stroke:#000000;stroke-width:1.0;stroke-dasharray:2.0,2.0;" x1="1026.5" x2="1518.5" y1="851.0776" y2="851.0776"/><text fill="#000000" font-family="Verdana" font-size="22" font-weight="bold" lengthAdjust="spacing" textLength="216" x="1031.5" y="874.5957">[data_type == "ecc"]</text><line style="stroke:#000000;stroke-width:2.0;" x1="1188.5" x2="1230.5" y1="918.0058" y2="918.0058"/><line style="stroke:#000000;stroke-width:2.0;" x1="1230.5" x2="1230.5" y1="918.0058" y2="931.0058"/><line style="stroke:#000000;stroke-width:2.0;" x1="1189.5" x2="1230.5" y1="931.0058" y2="931.0058"/><polygon fill="#000000" points="1199.5,927.0058,1189.5,931.0058,1199.5,935.0058,1195.5,931.0058" style="stroke:#000000;stroke-width:1.0;"/><text fill="#000000" font-family="Verdana" font-size="22" lengthAdjust="spacing" textLength="182" x="1195.5" y="909.5598">Generate ECC key</text><rect fill="#F5F5F5" height="3" style="stroke:#F5F5F5;stroke-width:1.0;" width="3533" x="5" y="973.9879"/><line style="stroke:#A9A9A9;stroke-width:0.5;" x1="5" x2="3538" y1="973.9879" y2="973.9879"/><line style="stroke:#A9A9A9;stroke-width:0.5;" x1="5" x2="3538" y1="976.9879" y2="976.9879"/><rect fill="#F5F5F5" height="37.9641" style="stroke:#A9A9A9;stroke-width:1.0;" width="301" x="1621" y="956.0058"/><text fill="#000000" font-family="Verdana" font-size="22" font-weight="bold" lengthAdjust="spacing" textLength="281" x="1627" y="983.5239">Start Signal Transmission</text><polygon fill="#000000" points="1579.5,1035.934,1589.5,1039.934,1579.5,1043.934,1583.5,1039.934" style="stroke:#000000;stroke-width:1.0;"/><line style="stroke:#000000;stroke-width:2.0;" x1="1188.5" x2="1585.5" y1="1039.934" y2="1039.934"/><text fill="#000000" font-family="Verdana" font-size="22" lengthAdjust="spacing" textLength="290" x="1245" y="1031.488">send_signal(SIGNAL_START)</text><polygon fill="#000000" points="2774.5,1079.8981,2784.5,1083.8981,2774.5,1087.8981,2778.5,1083.8981" style="stroke:#000000;stroke-width:1.0;"/><line style="stroke:#000000;stroke-width:2.0;" x1="1591.5" x2="2780.5" y1="1083.8981" y2="1083.8981"/><text fill="#000000" font-family="Verdana" font-size="22" lengthAdjust="spacing" textLength="261" x="2058.5" y="1075.4521">Get cipher lists for signal</text><polygon fill="#000000" points="1602.5,1123.8622,1592.5,1127.8622,1602.5,1131.8622,1598.5,1127.8622" style="stroke:#000000;stroke-width:1.0;"/><line style="stroke:#000000;stroke-width:2.0;stroke-dasharray:2.0,2.0;" x1="1596.5" x2="2785.5" y1="1127.8622" y2="1127.8622"/><text fill="#000000" font-family="Verdana" font-size="22" lengthAdjust="spacing" textLength="222" x="2078" y="1119.4162">Return cipher strings</text><polygon fill="#000000" points="3113,1167.8263,3123,1171.8263,3113,1175.8263,3117,1171.8263" style="stroke:#000000;stroke-width:1.0;"/><line style="stroke:#000000;stroke-width:2.0;" x1="1591.5" x2="3119" y1="1171.8263" y2="1171.8263"/><text fill="#000000" font-family="Verdana" font-size="22" lengthAdjust="spacing" textLength="406" x="2155.25" y="1163.3803">First connection with first cipher string</text><polygon fill="#000000" points="3382,1211.7904,3392,1215.7904,3382,1219.7904,3386,1215.7904" style="stroke:#000000;stroke-width:1.0;"/><line style="stroke:#000000;stroke-width:2.0;" x1="3125" x2="3388" y1="1215.7904" y2="1215.7904"/><text fill="#000000" font-family="Verdana" font-size="22" lengthAdjust="spacing" textLength="179" x="3170" y="1207.3444">Connect with TLS</text><polygon fill="#000000" points="3136,1255.7546,3126,1259.7546,3136,1263.7546,3132,1259.7546" style="stroke:#000000;stroke-width:1.0;"/><line style="stroke:#000000;stroke-width:2.0;stroke-dasharray:2.0,2.0;" x1="3130" x2="3393" y1="1259.7546" y2="1259.7546"/><text fill="#000000" font-family="Verdana" font-size="22" lengthAdjust="spacing" textLength="245" x="3137" y="1251.3085">Connection established</text><polygon fill="#000000" points="1602.5,1299.7187,1592.5,1303.7187,1602.5,1307.7187,1598.5,1303.7187" style="stroke:#000000;stroke-width:1.0;"/><line style="stroke:#000000;stroke-width:2.0;stroke-dasharray:2.0,2.0;" x1="1596.5" x2="3124" y1="1303.7187" y2="1303.7187"/><text fill="#000000" font-family="Verdana" font-size="22" lengthAdjust="spacing" textLength="241" x="2237.75" y="1295.2726">Connection 1 complete</text><polygon fill="#000000" points="3113,1343.6828,3123,1347.6828,3113,1351.6828,3117,1347.6828" style="stroke:#000000;stroke-width:1.0;"/><line style="stroke:#000000;stroke-width:2.0;" x1="1591.5" x2="3119" y1="1347.6828" y2="1347.6828"/><text fill="#000000" font-family="Verdana" font-size="22" lengthAdjust="spacing" textLength="470" x="2123.25" y="1339.2367">Second connection with second cipher string</text><polygon fill="#000000" points="3382,1387.6469,3392,1391.6469,3382,1395.6469,3386,1391.6469" style="stroke:#000000;stroke-width:1.0;"/><line style="stroke:#000000;stroke-width:2.0;" x1="3125" x2="3388" y1="1391.6469" y2="1391.6469"/><text fill="#000000" font-family="Verdana" font-size="22" lengthAdjust="spacing" textLength="179" x="3170" y="1383.2008">Connect with TLS</text><polygon fill="#000000" points="3136,1431.611,3126,1435.611,3136,1439.611,3132,1435.611" style="stroke:#000000;stroke-width:1.0;"/><line style="stroke:#000000;stroke-width:2.0;stroke-dasharray:2.0,2.0;" x1="3130" x2="3393" y1="1435.611" y2="1435.611"/><text fill="#000000" font-family="Verdana" font-size="22" lengthAdjust="spacing" textLength="245" x="3137" y="1427.1649">Connection established</text><polygon fill="#000000" points="1602.5,1475.5751,1592.5,1479.5751,1602.5,1483.5751,1598.5,1479.5751" style="stroke:#000000;stroke-width:1.0;"/><line style="stroke:#000000;stroke-width:2.0;stroke-dasharray:2.0,2.0;" x1="1596.5" x2="3124" y1="1479.5751" y2="1479.5751"/><text fill="#000000" font-family="Verdana" font-size="22" lengthAdjust="spacing" textLength="241" x="2237.75" y="1471.129">Connection 2 complete</text><polygon fill="#000000" points="1199.5,1519.5392,1189.5,1523.5392,1199.5,1527.5392,1195.5,1523.5392" style="stroke:#000000;stroke-width:1.0;"/><line style="stroke:#000000;stroke-width:2.0;stroke-dasharray:2.0,2.0;" x1="1193.5" x2="1590.5" y1="1523.5392" y2="1523.5392"/><text fill="#000000" font-family="Verdana" font-size="22" lengthAdjust="spacing" textLength="115" x="1332.5" y="1515.0931">Signal sent</text><rect fill="#F5F5F5" height="3" style="stroke:#F5F5F5;stroke-width:1.0;" width="3533" x="5" y="1559.5212"/><line style="stroke:#A9A9A9;stroke-width:0.5;" x1="5" x2="3538" y1="1559.5212" y2="1559.5212"/><line style="stroke:#A9A9A9;stroke-width:0.5;" x1="5" x2="3538" y1="1562.5212" y2="1562.5212"/><rect fill="#F5F5F5" height="37.9641" style="stroke:#A9A9A9;stroke-width:1.0;" width="299" x="1622" y="1541.5392"/><text fill="#000000" font-family="Verdana" font-size="22" font-weight="bold" lengthAdjust="spacing" textLength="279" x="1628" y="1569.0572">Type Signal Transmission</text><polygon fill="#000000" points="1579.5,1621.4674,1589.5,1625.4674,1579.5,1629.4674,1583.5,1625.4674" style="stroke:#000000;stroke-width:1.0;"/><line style="stroke:#000000;stroke-width:2.0;" x1="1188.5" x2="1585.5" y1="1625.4674" y2="1625.4674"/><text fill="#000000" font-family="Verdana" font-size="22" lengthAdjust="spacing" textLength="312" x="1234" y="1617.0213">send_signal(data_type_signal)</text><polygon fill="#000000" points="2774.5,1665.4315,2784.5,1669.4315,2774.5,1673.4315,2778.5,1669.4315" style="stroke:#000000;stroke-width:1.0;"/><line style="stroke:#000000;stroke-width:2.0;" x1="1591.5" x2="2780.5" y1="1669.4315" y2="1669.4315"/><text fill="#000000" font-family="Verdana" font-size="22" lengthAdjust="spacing" textLength="261" x="2058.5" y="1660.9854">Get cipher lists for signal</text><polygon fill="#000000" points="1602.5,1709.3956,1592.5,1713.3956,1602.5,1717.3956,1598.5,1713.3956" style="stroke:#000000;stroke-width:1.0;"/><line style="stroke:#000000;stroke-width:2.0;stroke-dasharray:2.0,2.0;" x1="1596.5" x2="2785.5" y1="1713.3956" y2="1713.3956"/><text fill="#000000" font-family="Verdana" font-size="22" lengthAdjust="spacing" textLength="222" x="2078" y="1704.9495">Return cipher strings</text><polygon fill="#000000" points="3113,1753.3597,3123,1757.3597,3113,1761.3597,3117,1757.3597" style="stroke:#000000;stroke-width:1.0;"/><line style="stroke:#000000;stroke-width:2.0;" x1="1591.5" x2="3119" y1="1757.3597" y2="1757.3597"/><text fill="#000000" font-family="Verdana" font-size="22" lengthAdjust="spacing" textLength="406" x="2155.25" y="1748.9136">First connection with first cipher string</text><polygon fill="#000000" points="3382,1797.3238,3392,1801.3238,3382,1805.3238,3386,1801.3238" style="stroke:#000000;stroke-width:1.0;"/><line style="stroke:#000000;stroke-width:2.0;" x1="3125" x2="3388" y1="1801.3238" y2="1801.3238"/><text fill="#000000" font-family="Verdana" font-size="22" lengthAdjust="spacing" textLength="179" x="3170" y="1792.8778">Connect with TLS</text><polygon fill="#000000" points="3136,1841.2879,3126,1845.2879,3136,1849.2879,3132,1845.2879" style="stroke:#000000;stroke-width:1.0;"/><line style="stroke:#000000;stroke-width:2.0;stroke-dasharray:2.0,2.0;" x1="3130" x2="3393" y1="1845.2879" y2="1845.2879"/><text fill="#000000" font-family="Verdana" font-size="22" lengthAdjust="spacing" textLength="245" x="3137" y="1836.8419">Connection established</text><polygon fill="#000000" points="1602.5,1885.252,1592.5,1889.252,1602.5,1893.252,1598.5,1889.252" style="stroke:#000000;stroke-width:1.0;"/><line style="stroke:#000000;stroke-width:2.0;stroke-dasharray:2.0,2.0;" x1="1596.5" x2="3124" y1="1889.252" y2="1889.252"/><text fill="#000000" font-family="Verdana" font-size="22" lengthAdjust="spacing" textLength="241" x="2237.75" y="1880.806">Connection 1 complete</text><polygon fill="#000000" points="3113,1929.2161,3123,1933.2161,3113,1937.2161,3117,1933.2161" style="stroke:#000000;stroke-width:1.0;"/><line style="stroke:#000000;stroke-width:2.0;" x1="1591.5" x2="3119" y1="1933.2161" y2="1933.2161"/><text fill="#000000" font-family="Verdana" font-size="22" lengthAdjust="spacing" textLength="470" x="2123.25" y="1924.7701">Second connection with second cipher string</text><polygon fill="#000000" points="3382,1973.1802,3392,1977.1802,3382,1981.1802,3386,1977.1802" style="stroke:#000000;stroke-width:1.0;"/><line style="stroke:#000000;stroke-width:2.0;" x1="3125" x2="3388" y1="1977.1802" y2="1977.1802"/><text fill="#000000" font-family="Verdana" font-size="22" lengthAdjust="spacing" textLength="179" x="3170" y="1968.7342">Connect with TLS</text><polygon fill="#000000" points="3136,2017.1443,3126,2021.1443,3136,2025.1443,3132,2021.1443" style="stroke:#000000;stroke-width:1.0;"/><line style="stroke:#000000;stroke-width:2.0;stroke-dasharray:2.0,2.0;" x1="3130" x2="3393" y1="2021.1443" y2="2021.1443"/><text fill="#000000" font-family="Verdana" font-size="22" lengthAdjust="spacing" textLength="245" x="3137" y="2012.6983">Connection established</text><polygon fill="#000000" points="1602.5,2061.1084,1592.5,2065.1084,1602.5,2069.1084,1598.5,2065.1084" style="stroke:#000000;stroke-width:1.0;"/><line style="stroke:#000000;stroke-width:2.0;stroke-dasharray:2.0,2.0;" x1="1596.5" x2="3124" y1="2065.1084" y2="2065.1084"/><text fill="#000000" font-family="Verdana" font-size="22" lengthAdjust="spacing" textLength="241" x="2237.75" y="2056.6624">Connection 2 complete</text><polygon fill="#000000" points="1199.5,2105.0725,1189.5,2109.0725,1199.5,2113.0725,1195.5,2109.0725" style="stroke:#000000;stroke-width:1.0;"/><line style="stroke:#000000;stroke-width:2.0;stroke-dasharray:2.0,2.0;" x1="1193.5" x2="1590.5" y1="2109.0725" y2="2109.0725"/><text fill="#000000" font-family="Verdana" font-size="22" lengthAdjust="spacing" textLength="115" x="1332.5" y="2100.6265">Signal sent</text><rect fill="#F5F5F5" height="3" style="stroke:#F5F5F5;stroke-width:1.0;" width="3533" x="5" y="2145.0545"/><line style="stroke:#A9A9A9;stroke-width:0.5;" x1="5" x2="3538" y1="2145.0545" y2="2145.0545"/><line style="stroke:#A9A9A9;stroke-width:0.5;" x1="5" x2="3538" y1="2148.0545" y2="2148.0545"/><rect fill="#F5F5F5" height="37.9641" style="stroke:#A9A9A9;stroke-width:1.0;" width="225" x="1659" y="2127.0725"/><text fill="#000000" font-family="Verdana" font-size="22" font-weight="bold" lengthAdjust="spacing" textLength="205" x="1665" y="2154.5906">Data Transmission</text><polygon fill="#000000" points="1831.5,2207.0007,1841.5,2211.0007,1831.5,2215.0007,1835.5,2211.0007" style="stroke:#000000;stroke-width:1.0;"/><line style="stroke:#000000;stroke-width:2.0;" x1="1188.5" x2="1837.5" y1="2211.0007" y2="2211.0007"/><text fill="#000000" font-family="Verdana" font-size="22" lengthAdjust="spacing" textLength="353" x="1339.5" y="2202.5547">send_key_over_tls_pairs(ascii_key)</text><path d="M1679,2226.0007 L1773,2226.0007 L1773,2247.9648 L1763,2257.9648 L1679,2257.9648 L1679,2226.0007 " fill="#FFFFFF" style="stroke:#000000;stroke-width:1.0;"/><rect fill="none" height="574.4974" style="stroke:#000000;stroke-width:1.0;" width="1839" x="1679" y="2226.0007"/><text fill="#000000" font-family="Verdana" font-size="22" font-weight="bold" lengthAdjust="spacing" textLength="49" x="1694" y="2250.5188">loop</text><text fill="#000000" font-family="Verdana" font-size="22" font-weight="bold" lengthAdjust="spacing" textLength="265" x="1788" y="2251.5188">[for each character pair]</text><polygon fill="#000000" points="2297.5,2304.893,2307.5,2308.893,2297.5,2312.893,2301.5,2308.893" style="stroke:#000000;stroke-width:1.0;"/><line style="stroke:#000000;stroke-width:2.0;" x1="1843.5" x2="2303.5" y1="2308.893" y2="2308.893"/><text fill="#000000" font-family="Verdana" font-size="22" lengthAdjust="spacing" textLength="442" x="1855.5" y="2300.447">tls_connection_for_ascii_pair(char1, char2)</text><polygon fill="#000000" points="2774.5,2348.8571,2784.5,2352.8571,2774.5,2356.8571,2778.5,2352.8571" style="stroke:#000000;stroke-width:1.0;"/><line style="stroke:#000000;stroke-width:2.0;" x1="2309.5" x2="2780.5" y1="2352.8571" y2="2352.8571"/><text fill="#000000" font-family="Verdana" font-size="22" lengthAdjust="spacing" textLength="453" x="2321.5" y="2344.4111">get_cipher_lists_for_ascii_pair(char1, char2)</text><polygon fill="#000000" points="2320.5,2392.8212,2310.5,2396.8212,2320.5,2400.8212,2316.5,2396.8212" style="stroke:#000000;stroke-width:1.0;"/><line style="stroke:#000000;stroke-width:2.0;stroke-dasharray:2.0,2.0;" x1="2314.5" x2="2785.5" y1="2396.8212" y2="2396.8212"/><text fill="#000000" font-family="Verdana" font-size="22" lengthAdjust="spacing" textLength="222" x="2437" y="2388.3752">Return cipher strings</text><polygon fill="#000000" points="3113,2436.7853,3123,2440.7853,3113,2444.7853,3117,2440.7853" style="stroke:#000000;stroke-width:1.0;"/><line style="stroke:#000000;stroke-width:2.0;" x1="2309.5" x2="3119" y1="2440.7853" y2="2440.7853"/><text fill="#000000" font-family="Verdana" font-size="22" lengthAdjust="spacing" textLength="400" x="2517.25" y="2432.3393">create_tls_connection(cipher_string_1)</text><polygon fill="#000000" points="3382,2480.7494,3392,2484.7494,3382,2488.7494,3386,2484.7494" style="stroke:#000000;stroke-width:1.0;"/><line style="stroke:#000000;stroke-width:2.0;" x1="3125" x2="3388" y1="2484.7494" y2="2484.7494"/><text fill="#000000" font-family="Verdana" font-size="22" lengthAdjust="spacing" textLength="179" x="3170" y="2476.3034">Connect with TLS</text><polygon fill="#000000" points="3136,2524.7135,3126,2528.7135,3136,2532.7135,3132,2528.7135" style="stroke:#000000;stroke-width:1.0;"/><line style="stroke:#000000;stroke-width:2.0;stroke-dasharray:2.0,2.0;" x1="3130" x2="3393" y1="2528.7135" y2="2528.7135"/><text fill="#000000" font-family="Verdana" font-size="22" lengthAdjust="spacing" textLength="245" x="3137" y="2520.2675">Connection established</text><polygon fill="#000000" points="2320.5,2568.6776,2310.5,2572.6776,2320.5,2576.6776,2316.5,2572.6776" style="stroke:#000000;stroke-width:1.0;"/><line style="stroke:#000000;stroke-width:2.0;stroke-dasharray:2.0,2.0;" x1="2314.5" x2="3124" y1="2572.6776" y2="2572.6776"/><text fill="#000000" font-family="Verdana" font-size="22" lengthAdjust="spacing" textLength="241" x="2596.75" y="2564.2316">Connection 1 complete</text><polygon fill="#000000" points="3113,2612.6417,3123,2616.6417,3113,2620.6417,3117,2616.6417" style="stroke:#000000;stroke-width:1.0;"/><line style="stroke:#000000;stroke-width:2.0;" x1="2309.5" x2="3119" y1="2616.6417" y2="2616.6417"/><text fill="#000000" font-family="Verdana" font-size="22" lengthAdjust="spacing" textLength="400" x="2517.25" y="2608.1957">create_tls_connection(cipher_string_2)</text><polygon fill="#000000" points="3382,2656.6058,3392,2660.6058,3382,2664.6058,3386,2660.6058" style="stroke:#000000;stroke-width:1.0;"/><line style="stroke:#000000;stroke-width:2.0;" x1="3125" x2="3388" y1="2660.6058" y2="2660.6058"/><text fill="#000000" font-family="Verdana" font-size="22" lengthAdjust="spacing" textLength="179" x="3170" y="2652.1598">Connect with TLS</text><polygon fill="#000000" points="3136,2700.5699,3126,2704.5699,3136,2708.5699,3132,2704.5699" style="stroke:#000000;stroke-width:1.0;"/><line style="stroke:#000000;stroke-width:2.0;stroke-dasharray:2.0,2.0;" x1="3130" x2="3393" y1="2704.5699" y2="2704.5699"/><text fill="#000000" font-family="Verdana" font-size="22" lengthAdjust="spacing" textLength="245" x="3137" y="2696.1239">Connection established</text><polygon fill="#000000" points="2320.5,2744.534,2310.5,2748.534,2320.5,2752.534,2316.5,2748.534" style="stroke:#000000;stroke-width:1.0;"/><line style="stroke:#000000;stroke-width:2.0;stroke-dasharray:2.0,2.0;" x1="2314.5" x2="3124" y1="2748.534" y2="2748.534"/><text fill="#000000" font-family="Verdana" font-size="22" lengthAdjust="spacing" textLength="241" x="2596.75" y="2740.088">Connection 2 complete</text><polygon fill="#000000" points="1854.5,2788.4981,1844.5,2792.4981,1854.5,2796.4981,1850.5,2792.4981" style="stroke:#000000;stroke-width:1.0;"/><line style="stroke:#000000;stroke-width:2.0;stroke-dasharray:2.0,2.0;" x1="1848.5" x2="2308.5" y1="2792.4981" y2="2792.4981"/><text fill="#000000" font-family="Verdana" font-size="22" lengthAdjust="spacing" textLength="277" x="1938" y="2784.0521">Character pair transmitted</text><polygon fill="#000000" points="1199.5,2839.4622,1189.5,2843.4622,1199.5,2847.4622,1195.5,2843.4622" style="stroke:#000000;stroke-width:1.0;"/><line style="stroke:#000000;stroke-width:2.0;stroke-dasharray:2.0,2.0;" x1="1193.5" x2="1842.5" y1="2843.4622" y2="2843.4622"/><text fill="#000000" font-family="Verdana" font-size="22" lengthAdjust="spacing" textLength="270" x="1381" y="2835.0162">Complete key transmitted</text><rect fill="#F5F5F5" height="3" style="stroke:#F5F5F5;stroke-width:1.0;" width="3533" x="5" y="2879.4443"/><line style="stroke:#A9A9A9;stroke-width:0.5;" x1="5" x2="3538" y1="2879.4443" y2="2879.4443"/><line style="stroke:#A9A9A9;stroke-width:0.5;" x1="5" x2="3538" y1="2882.4443" y2="2882.4443"/><rect fill="#F5F5F5" height="37.9641" style="stroke:#A9A9A9;stroke-width:1.0;" width="286" x="1628.5" y="2861.4622"/><text fill="#000000" font-family="Verdana" font-size="22" font-weight="bold" lengthAdjust="spacing" textLength="266" x="1634.5" y="2888.9803">End Signal Transmission</text><polygon fill="#000000" points="1579.5,2941.3904,1589.5,2945.3904,1579.5,2949.3904,1583.5,2945.3904" style="stroke:#000000;stroke-width:1.0;"/><line style="stroke:#000000;stroke-width:2.0;" x1="1188.5" x2="1585.5" y1="2945.3904" y2="2945.3904"/><text fill="#000000" font-family="Verdana" font-size="22" lengthAdjust="spacing" textLength="271" x="1254.5" y="2936.9444">send_signal(SIGNAL_END)</text><polygon fill="#000000" points="2774.5,2985.3545,2784.5,2989.3545,2774.5,2993.3545,2778.5,2989.3545" style="stroke:#000000;stroke-width:1.0;"/><line style="stroke:#000000;stroke-width:2.0;" x1="1591.5" x2="2780.5" y1="2989.3545" y2="2989.3545"/><text fill="#000000" font-family="Verdana" font-size="22" lengthAdjust="spacing" textLength="261" x="2058.5" y="2980.9085">Get cipher lists for signal</text><polygon fill="#000000" points="1602.5,3029.3186,1592.5,3033.3186,1602.5,3037.3186,1598.5,3033.3186" style="stroke:#000000;stroke-width:1.0;"/><line style="stroke:#000000;stroke-width:2.0;stroke-dasharray:2.0,2.0;" x1="1596.5" x2="2785.5" y1="3033.3186" y2="3033.3186"/><text fill="#000000" font-family="Verdana" font-size="22" lengthAdjust="spacing" textLength="222" x="2078" y="3024.8726">Return cipher strings</text><polygon fill="#000000" points="3113,3073.2827,3123,3077.2827,3113,3081.2827,3117,3077.2827" style="stroke:#000000;stroke-width:1.0;"/><line style="stroke:#000000;stroke-width:2.0;" x1="1591.5" x2="3119" y1="3077.2827" y2="3077.2827"/><text fill="#000000" font-family="Verdana" font-size="22" lengthAdjust="spacing" textLength="406" x="2155.25" y="3068.8367">First connection with first cipher string</text><polygon fill="#000000" points="3382,3117.2468,3392,3121.2468,3382,3125.2468,3386,3121.2468" style="stroke:#000000;stroke-width:1.0;"/><line style="stroke:#000000;stroke-width:2.0;" x1="3125" x2="3388" y1="3121.2468" y2="3121.2468"/><text fill="#000000" font-family="Verdana" font-size="22" lengthAdjust="spacing" textLength="179" x="3170" y="3112.8008">Connect with TLS</text><polygon fill="#000000" points="3136,3161.2109,3126,3165.2109,3136,3169.2109,3132,3165.2109" style="stroke:#000000;stroke-width:1.0;"/><line style="stroke:#000000;stroke-width:2.0;stroke-dasharray:2.0,2.0;" x1="3130" x2="3393" y1="3165.2109" y2="3165.2109"/><text fill="#000000" font-family="Verdana" font-size="22" lengthAdjust="spacing" textLength="245" x="3137" y="3156.7649">Connection established</text><polygon fill="#000000" points="1602.5,3205.175,1592.5,3209.175,1602.5,3213.175,1598.5,3209.175" style="stroke:#000000;stroke-width:1.0;"/><line style="stroke:#000000;stroke-width:2.0;stroke-dasharray:2.0,2.0;" x1="1596.5" x2="3124" y1="3209.175" y2="3209.175"/><text fill="#000000" font-family="Verdana" font-size="22" lengthAdjust="spacing" textLength="241" x="2237.75" y="3200.729">Connection 1 complete</text><polygon fill="#000000" points="3113,3249.1391,3123,3253.1391,3113,3257.1391,3117,3253.1391" style="stroke:#000000;stroke-width:1.0;"/><line style="stroke:#000000;stroke-width:2.0;" x1="1591.5" x2="3119" y1="3253.1391" y2="3253.1391"/><text fill="#000000" font-family="Verdana" font-size="22" lengthAdjust="spacing" textLength="470" x="2123.25" y="3244.6931">Second connection with second cipher string</text><polygon fill="#000000" points="3382,3293.1032,3392,3297.1032,3382,3301.1032,3386,3297.1032" style="stroke:#000000;stroke-width:1.0;"/><line style="stroke:#000000;stroke-width:2.0;" x1="3125" x2="3388" y1="3297.1032" y2="3297.1032"/><text fill="#000000" font-family="Verdana" font-size="22" lengthAdjust="spacing" textLength="179" x="3170" y="3288.6572">Connect with TLS</text><polygon fill="#000000" points="3136,3337.0673,3126,3341.0673,3136,3345.0673,3132,3341.0673" style="stroke:#000000;stroke-width:1.0;"/><line style="stroke:#000000;stroke-width:2.0;stroke-dasharray:2.0,2.0;" x1="3130" x2="3393" y1="3341.0673" y2="3341.0673"/><text fill="#000000" font-family="Verdana" font-size="22" lengthAdjust="spacing" textLength="245" x="3137" y="3332.6213">Connection established</text><polygon fill="#000000" points="1602.5,3381.0314,1592.5,3385.0314,1602.5,3389.0314,1598.5,3385.0314" style="stroke:#000000;stroke-width:1.0;"/><line style="stroke:#000000;stroke-width:2.0;stroke-dasharray:2.0,2.0;" x1="1596.5" x2="3124" y1="3385.0314" y2="3385.0314"/><text fill="#000000" font-family="Verdana" font-size="22" lengthAdjust="spacing" textLength="241" x="2237.75" y="3376.5854">Connection 2 complete</text><polygon fill="#000000" points="1199.5,3424.9955,1189.5,3428.9955,1199.5,3432.9955,1195.5,3428.9955" style="stroke:#000000;stroke-width:1.0;"/><line style="stroke:#000000;stroke-width:2.0;stroke-dasharray:2.0,2.0;" x1="1193.5" x2="1590.5" y1="3428.9955" y2="3428.9955"/><text fill="#000000" font-family="Verdana" font-size="22" lengthAdjust="spacing" textLength="115" x="1332.5" y="3420.5495">Signal sent</text><rect fill="#F5F5F5" height="3" style="stroke:#F5F5F5;stroke-width:1.0;" width="3533" x="5" y="3471.9776"/><line style="stroke:#A9A9A9;stroke-width:0.5;" x1="5" x2="3538" y1="3471.9776" y2="3471.9776"/><line style="stroke:#A9A9A9;stroke-width:0.5;" x1="5" x2="3538" y1="3474.9776" y2="3474.9776"/><rect fill="#F5F5F5" height="37.9641" style="stroke:#A9A9A9;stroke-width:1.0;" width="139" x="1702" y="3453.9955"/><text fill="#000000" font-family="Verdana" font-size="22" font-weight="bold" lengthAdjust="spacing" textLength="119" x="1708" y="3481.5136">Final Steps</text><line style="stroke:#000000;stroke-width:2.0;" x1="1188.5" x2="1230.5" y1="3537.9237" y2="3537.9237"/><line style="stroke:#000000;stroke-width:2.0;" x1="1230.5" x2="1230.5" y1="3537.9237" y2="3550.9237"/><line style="stroke:#000000;stroke-width:2.0;" x1="1189.5" x2="1230.5" y1="3550.9237" y2="3550.9237"/><polygon fill="#000000" points="1199.5,3546.9237,1189.5,3550.9237,1199.5,3554.9237,1195.5,3550.9237" style="stroke:#000000;stroke-width:1.0;"/><text fill="#000000" font-family="Verdana" font-size="22" lengthAdjust="spacing" textLength="389" x="1195.5" y="3529.4777">save_data_to_file(data_type, data_list)</text><polygon fill="#000000" points="362,3590.8878,352,3594.8878,362,3598.8878,358,3594.8878" style="stroke:#000000;stroke-width:1.0;"/><line style="stroke:#000000;stroke-width:2.0;stroke-dasharray:2.0,2.0;" x1="356" x2="1187.5" y1="3594.8878" y2="3594.8878"/><text fill="#000000" font-family="Verdana" font-size="22" lengthAdjust="spacing" textLength="243" x="648.25" y="3586.4418">Transmission complete</text><polygon fill="#000000" points="48,3634.8519,38,3638.8519,48,3642.8519,44,3638.8519" style="stroke:#000000;stroke-width:1.0;"/><line style="stroke:#000000;stroke-width:2.0;stroke-dasharray:2.0,2.0;" x1="42" x2="350" y1="3638.8519" y2="3638.8519"/><text fill="#000000" font-family="Verdana" font-size="22" lengthAdjust="spacing" textLength="290" x="49" y="3630.4059">Program execution finished</text><!--SRC=[xLZRRkCs47tNLqppqXXO1sitA5gZAU0gbpMQB0BBGLyA25nfRBEcI9Maadg_laDAbYLPJhPeW2wAlDWnPyvSpr2ZV6FNc27aWd4Pc0sNETCi0uD_5YWJd6gjdXPhdcma6WFZ7fLB_iXJrB-mPBFIgf1fg8JIyDkQMumojS5dC4hJPwb_oVJcHhDjGvi-BKzupgIzLj96TYiGFYcHzbYye_3O2gU2hoGaA2tg8FWMPZBHo0p2aWo0uP_HDC0fBbaXIkCaWd4pFykjmBtel5Uq3odmXx2uZI3a-HhrC2ge0iCFAi-vN46e7b5R2DTCIXGmX8LcqcJS6AuaH5KQGS0IIzLuC1H_8tyuoQX1fuCJO0RkNAzQGlfXC6PwLMIKkgdqfdfrxmGTIqAnDCvHPuLbbfplrE_fw9PaNVqLIjJCadsPnhQCsbQOcrAcEX23f6ge5KnKYf7_4T4vzkbkS1kx0iLMc3XdNE-2-XMtVI2dbYYgPE8oY9TAnymad7ji1Gr9_e5Y5eS9sJZnFOe5DzOSWNkDEvRdNRoZ59MZ7KE5elw7Jjojo1mpPP7wh2dBt-NfwCVnsUZx7yxUdutVJyxFlwkgvCL1S751pEMMCy4_-nx1nKKGE5B0y6VV_mdC2macqJotyCJj6gZx9d0YfrAtVWB-6nALPLGB45nYgLghm71l4ssX9NWwfMsBUtPCm7r3aq71NjhLdMD7z-mFesGBKBj_o5CgB4oZS3QBxwUpUGGfzzLbUkkhSiaisv7EbSMbr1eaLwTTo3Kv9z3FOVB6OhlDyHtLfv1s40H2gPmk2mt8aZNG06T0nhmq0632GWqYNsxoZ7cYQ-o4fB3tUCmzUKvL5kzGfmE2eQ3-jArgmvutMFs9C8-cGCFJRmQJv0lDN8NXpeoakmmSFB94u6fm3uhSiTaSxmaqnp-QtNoStiRHOZfVk6oRcWxP73CNa8LoDC6Ffcz5QOcmJLrFcxRRYhqLtbXDzwu9UdpkXtG2rtJNaCzwZijXMfQdJKjaPu_pEVjXdVXxXh0ba5JQYZyDXrrDvmMDPPyenJMc7SC7QJLG8pV7kK2B17eXiGWfgVGWCrCTVssfZPkfjVDgSxOY977CLaHTEBx_MvxMarCT_2TS_RzIzOsdi7julK3GUj-fsDcp69MR2Wa6vINGVcGbQrfH4rf_mMdxsx-swJcytuecyFmQvKoDtdcBuu6tr00VpiDBQrMFkUwCj88xDY8-wODOcfJgNz2gs4f3yQWCuOlvzCyPTS2fLdR7HkLriXj_FTcDNygkpVgmnL_OxMhMEtNBYJVHe7HxwiBAbzjcMk1o1A_eIdcbZURgu-NRC-Bj6V5gpmY_U1D5hxaxYYpcnj7osEfks2F6vTAYuYKNs7oRyNywmWsQ-FezgqNzEjJojOcK7ihtHgrMxfyT-1ScXKzhoMLPYRy1]--></g></svg>